<svg id="Layer_1" data-name="Layer 1" xmlns="http://www.w3.org/2000/svg" viewBox="0 0 512 512"><defs><style>.cls-1{fill:#fff;}</style></defs><title>drill-bit</title><polygon class="cls-1" points="350.27 33.41 140.04 117.79 140.04 175.23 165.63 194.44 373.8 110.6 373.8 51.07 350.27 33.41"/><polygon class="cls-1" points="350.27 148.47 140.04 232.86 140.04 290.3 165.63 309.51 373.8 225.66 373.8 166.13 350.27 148.47"/><polygon class="cls-1" points="350.27 262.09 140.04 346.48 140.04 403.92 165.63 423.13 373.8 339.29 373.8 279.75 350.27 262.09"/><polygon class="cls-1" points="187.49 441.04 261.08 494.86 373.8 409.76 373.8 365.59 187.49 441.04"/><polygon class="cls-1" points="374 0 139 95 139 0 374 0 374 0"/></svg>