<?xml version="1.0" encoding="utf-8"?>
<!-- Generator: Adobe Illustrator 22.1.0, SVG Export Plug-In . SVG Version: 6.00 Build 0)  -->
<svg style="color: white;" version="1.1" id="Layer_1" xmlns="http://www.w3.org/2000/svg" xmlns:xlink="http://www.w3.org/1999/xlink" x="0px" y="0px"
	 viewBox="0 0 512 512">
<g fill="currentColor">
	<path d="M422.5,143.2H319.2L357.3,27c3.6-13.6-6.7-27-20.8-27H207.7c-10.7,0-19.9,8-21.3,18.6l-28.6,214.8
		c-1.7,12.9,8.3,24.3,21.3,24.3h106.2L244,431.9c-3.2,13.6,7.2,26.4,20.9,26.4c7.5,0,14.7-3.9,18.6-10.7L441,175.4
		C449.3,161.2,439,143.2,422.5,143.2z"/>
	<g fill="currentColor">
		<path d="M234.4,429.6l38.4-162H179c-9,0-17.6-3.9-23.5-10.7c-6-6.8-8.7-15.8-7.5-24.8l23.8-178.4h-53.6c-10.7,0-19.9,8-21.3,18.6
			L68.2,287.1c-1.7,12.9,8.3,24.3,21.3,24.3h106.2l-41.3,174.1c-3.2,13.6,7.2,26.4,20.9,26.4c7.5,0,14.7-3.9,18.6-10.7l40-69
			C234.1,431.4,234.2,430.5,234.4,429.6z"/>
	</g>
</g>
</svg>
