<svg style="color: white;" version="1.1" id="Layer_1" xmlns="http://www.w3.org/2000/svg" xmlns:xlink="http://www.w3.org/1999/xlink" x="0px" y="0px"
	 viewBox="0 0 512 512">
	<g fill="currentColor">
		<path d="M422.7,422.7L383,383c-4.5-4.5-11.6-4.7-16.4-0.6C336,409.3,297.1,424,256,424c-24.1,0-46.8-5-67.3-14l0,0
			C128.5,383.7,87.4,323.1,88,254.5c0.4-42.4,16.4-82.4,45.3-113.2L175,183c15.1,15.1,41,4.4,41-17V32c0-13.3-10.7-24-24-24H57.9
			C36.6,8,25.9,33.9,41,49l35.7,35.7C34.2,129.1,8.1,189.3,8,255.5C7.8,360.9,73.9,451.4,166.8,487.4l0,0.1
			c27.7,10.7,57.7,16.5,89.2,16.5c63.9,0,122.2-24.2,166.2-63.9C427.3,435.5,427.5,427.5,422.7,422.7z"/>

		<path d="M463,41l-35.7,35.7C382.9,34.2,322.7,8.1,256.5,8c-9,0-17.9,0.5-26.7,1.4c4,6.6,6.3,14.3,6.3,22.6v57.2
			c7.1-0.8,14.2-1.3,21.5-1.2c42.4,0.4,82.4,16.4,113.2,45.3L329,175c-15.1,15.1-4.4,41,17,41H480c13.3,0,24-10.7,24-24V57.9
			C504,36.6,478.1,25.9,463,41z"/>
	</g>
</svg>
