<svg width="431" height="227" viewBox="0 0 431 227" fill="none" xmlns="http://www.w3.org/2000/svg">
<rect width="431" height="227" fill="white"/>
<path d="M23.8333 34.5H33.1667C33.903 34.5 34.5 33.903 34.5 33.1667V23.8333C34.5 23.097 33.903 22.5 33.1667 22.5H23.8333C23.097 22.5 22.5 23.097 22.5 23.8333V33.1667C22.5 33.903 23.097 34.5 23.8333 34.5ZM23.8333 34.5H25.75L31.5 28.5L34.5 31M28.5 26.75C28.5 27.7165 27.7165 28.5 26.75 28.5C25.7835 28.5 25 27.7165 25 26.75C25 25.7835 25.7835 25 26.75 25C27.7165 25 28.5 25.7835 28.5 26.75Z" stroke="#09A098" stroke-linecap="round" stroke-linejoin="round"/>
<path d="M59 27C59 27.2761 59.2239 27.5 59.5 27.5C59.7761 27.5 60 27.2761 60 27H59ZM59.5 24.5556H59H59.5ZM62.5 21.5V21V21.5ZM65 27C65 27.2761 65.2239 27.5 65.5 27.5C65.7761 27.5 66 27.2761 66 27H65ZM58.5 28H66.5V27H58.5V28ZM67 28.4922V34.5078H68V28.4922H67ZM66.5 35H58.5V36H66.5V35ZM58 34.5078V28.4922H57V34.5078H58ZM58.5 35C58.2202 35 58 34.776 58 34.5078H57C57 35.3356 57.6752 36 58.5 36V35ZM67 34.5078C67 34.776 66.7798 35 66.5 35V36C67.3248 36 68 35.3356 68 34.5078H67ZM66.5 28C66.7798 28 67 28.224 67 28.4922H68C68 27.6644 67.3248 27 66.5 27V28ZM58.5 27C57.6752 27 57 27.6644 57 28.4922H58C58 28.224 58.2202 28 58.5 28V27ZM60 27V24.5556H59V27H60ZM60 24.5556C60 23.8749 60.2656 23.2238 60.7355 22.7452L60.0219 22.0447C59.3666 22.7121 59 23.6155 59 24.5556H60ZM60.7355 22.7452C61.205 22.267 61.84 22 62.5 22V21C61.5688 21 60.6775 21.3769 60.0219 22.0447L60.7355 22.7452ZM62.5 22C63.16 22 63.795 22.267 64.2645 22.7452L64.9781 22.0447C64.3225 21.3769 63.4312 21 62.5 21V22ZM64.2645 22.7452C64.7344 23.2238 65 23.8749 65 24.5556H66C66 23.6155 65.6334 22.7121 64.9781 22.0447L64.2645 22.7452ZM65 24.5556V27H66V24.5556H65Z" fill="#09A098"/>
<path d="M94.5 33.5V34.1875L95.366 35.5H97.634L98.5 34.1875V33.5M96.5 26.4705V29.5M100.5 25.9333C100.5 23.4396 98.7222 21.5 96.5 21.5C94.2778 21.5 92.5 23.5319 92.5 25.9333C92.5 28.3347 94.2333 30.2069 94.5 31.5H98.5C98.7667 30.2069 100.5 28.3347 100.5 25.9333Z" stroke="#09A098" stroke-miterlimit="10" stroke-linecap="round" stroke-linejoin="round"/>
<path d="M129.06 29.2205C129.369 29.6342 129.764 29.9765 130.216 30.2242C130.669 30.4719 131.17 30.6192 131.685 30.6561C132.2 30.693 132.717 30.6187 133.2 30.4381C133.684 30.2576 134.123 29.975 134.488 29.6096L136.647 27.4479C137.303 26.7684 137.666 25.8583 137.657 24.9136C137.649 23.969 137.271 23.0653 136.603 22.3973C135.936 21.7293 135.033 21.3504 134.09 21.3422C133.146 21.334 132.237 21.6971 131.558 22.3534L130.32 23.5856M131.939 27.7794C131.63 27.3657 131.236 27.0233 130.783 26.7756C130.33 26.5279 129.829 26.3806 129.314 26.3437C128.8 26.3068 128.283 26.3812 127.799 26.5617C127.316 26.7423 126.877 27.0249 126.512 27.3902L124.352 29.552C123.697 30.2315 123.334 31.1416 123.342 32.0863C123.35 33.0309 123.729 33.9346 124.396 34.6026C125.063 35.2706 125.966 35.6495 126.91 35.6577C127.853 35.6659 128.763 35.3028 129.442 34.6465L130.672 33.4143" stroke="#09A098" stroke-linecap="round" stroke-linejoin="round"/>
<path d="M162.616 26.6453C162.42 26.4507 162.103 26.4517 161.908 26.6476C161.714 26.8435 161.715 27.1601 161.911 27.3547L162.616 26.6453ZM166.414 31.8284C166.61 32.023 166.926 32.022 167.121 31.8261C167.315 31.6302 167.314 31.3136 167.118 31.119L166.414 31.8284ZM161.908 31.1221C161.713 31.3185 161.715 31.6351 161.912 31.8292C162.108 32.0234 162.425 32.0216 162.619 31.8252L161.908 31.1221ZM167.042 27.3516C167.236 27.1552 167.235 26.8386 167.038 26.6445C166.842 26.4503 166.525 26.4521 166.331 26.6484L167.042 27.3516ZM168 21.5C168 21.2239 167.776 21 167.5 21C167.224 21 167 21.2239 167 21.5H168ZM167 24.5C167 24.7761 167.224 25 167.5 25C167.776 25 168 24.7761 168 24.5H167ZM162 21.5C162 21.2239 161.776 21 161.5 21C161.224 21 161 21.2239 161 21.5H162ZM161 24.5C161 24.7761 161.224 25 161.5 25C161.776 25 162 24.7761 162 24.5H161ZM161.911 27.3547L164.142 29.5716L164.847 28.8622L162.616 26.6453L161.911 27.3547ZM164.142 29.5716L166.414 31.8284L167.118 31.119L164.847 28.8622L164.142 29.5716ZM162.619 31.8252L164.85 29.5685L164.139 28.8654L161.908 31.1221L162.619 31.8252ZM164.85 29.5685L167.042 27.3516L166.331 26.6484L164.139 28.8654L164.85 29.5685ZM167 21.5V24.5H168V21.5H167ZM161 21.5V24.5H162V21.5H161ZM159.5 24H169.5V23H159.5V24ZM170 24.5V33.5H171V24.5H170ZM169.5 34H159.5V35H169.5V34ZM159 33.5V24.5H158V33.5H159ZM159.5 34C159.224 34 159 33.7761 159 33.5H158C158 34.3284 158.672 35 159.5 35V34ZM170 33.5C170 33.7761 169.776 34 169.5 34V35C170.328 35 171 34.3284 171 33.5H170ZM169.5 24C169.776 24 170 24.2239 170 24.5H171C171 23.6716 170.328 23 169.5 23V24ZM159.5 23C158.672 23 158 23.6716 158 24.5H159C159 24.2239 159.224 24 159.5 24V23Z" fill="#09A098"/>
<path d="M198.5 21.5L198.5 35.5M202.708 23.5H196.771C196.036 23.5 195.331 23.7634 194.812 24.2322C194.292 24.7011 194 25.337 194 26C194 26.663 194.292 27.2989 194.812 27.7678C195.331 28.2366 196.036 28.5 196.771 28.5H200.729C201.464 28.5 202.169 28.7634 202.688 29.2322C203.208 29.7011 203.5 30.337 203.5 31C203.5 31.663 203.208 32.2989 202.688 32.7678C202.169 33.2366 201.464 33.5 200.729 33.5H194" stroke="#09A098" stroke-linecap="round" stroke-linejoin="round"/>
<path d="M235.5 34.5L235.527 23.9893C235.527 23.5943 235.38 23.2155 235.117 22.9362C234.855 22.6569 234.499 22.5 234.127 22.5H230.927C230.556 22.5 230.2 22.6569 229.938 22.9362C229.675 23.2155 229.527 23.5944 229.527 23.9894L229.5 34.5M226.987 25.5H238.188C238.961 25.5 239.5 26.2412 239.5 27.0638V33.0106C239.5 33.8331 238.873 34.5 238.1 34.5H226.9C226.127 34.5 225.5 33.8331 225.5 33.0106V27.0638C225.5 26.2412 226.214 25.5 226.987 25.5Z" stroke="#09A098" stroke-linecap="round" stroke-linejoin="round"/>
<path d="M264.5 25.5V26.5M268.5 26.5V25.5M263.368 30.2895C263.368 30.2895 264.543 31.6316 266.5 31.6316C268.457 31.6316 269.632 30.2895 269.632 30.2895M273.5 28.5C273.5 32.366 270.366 35.5 266.5 35.5C262.634 35.5 259.5 32.366 259.5 28.5C259.5 24.634 262.634 21.5 266.5 21.5C270.366 21.5 273.5 24.634 273.5 28.5Z" stroke="#09A098" stroke-linecap="round" stroke-linejoin="round"/>
<path d="M301.5 21.5H296.333C295.873 21.5 295.5 21.8918 295.5 22.375V34.625C295.5 35.1082 295.873 35.5 296.333 35.5H304.667C305.127 35.5 305.5 35.1082 305.5 34.625V25.5M301.5 21.5V25.5H305.5M301.5 21.5L305.5 25.5M299.5 33V28.5H301.091C301.869 28.5 302.5 29.1914 302.5 29.9766C302.5 30.7617 301.824 31.5 301.046 31.5H299.75" stroke="#09A098" stroke-linecap="round" stroke-linejoin="round"/>
<path d="M339.5 33.5H328.215C327.82 33.5 327.5 33.2036 327.5 32.8379L327.5 24.5M341.5 24.5L335.5 28L329.5 24.5M329.5 23.2449C329.5 22.8335 329.855 22.5 330.292 22.5H340.75C341.187 22.5 341.542 22.8335 341.542 23.2449V30.7551C341.542 31.1665 341.187 31.5 340.75 31.5H330.292C329.855 31.5 329.5 31.1665 329.5 30.7551V23.2449Z" stroke="#09A098" stroke-linecap="round" stroke-linejoin="round"/>
<path d="M375.5 35.5L372.75 32.75M361.924 25.5L375.076 25.5M368.5 34.5H362.348C361.88 34.5 361.5 34.114 361.5 33.6379V23.3621C361.5 22.886 361.88 22.5 362.348 22.5H374.652C375.12 22.5 375.5 22.886 375.5 23.3621V28.75M373.542 30.7708C373.542 32.3011 372.301 33.5417 370.771 33.5417C369.241 33.5417 368 32.3011 368 30.7708C368 29.2405 369.241 28 370.771 28C372.301 28 373.542 29.2405 373.542 30.7708Z" stroke="#09A098" stroke-linecap="round" stroke-linejoin="round"/>
<path d="M402.5 35.5C405.648 35.5 408.31 33.4222 409.191 30.5634C409.392 29.9111 409.5 29.2182 409.5 28.5C409.5 27.7818 409.392 27.0889 409.191 26.4366C408.31 23.5778 405.648 21.5 402.5 21.5M402.5 35.5C399.352 35.5 396.69 33.4222 395.809 30.5634C395.608 29.9111 395.5 29.2182 395.5 28.5C395.5 27.7818 395.608 27.0889 395.809 26.4366C396.69 23.5778 399.352 21.5 402.5 21.5M402.5 35.5C404.285 35.5 405.733 32.366 405.733 28.5C405.733 24.634 404.285 21.5 402.5 21.5M402.5 35.5C400.715 35.5 399.267 32.366 399.267 28.5C399.267 24.634 400.715 21.5 402.5 21.5M409.132 26.5H395.75M409.25 30.5H395.868" stroke="#09A098"/>
<path d="M30.2153 56.4983H31.1677C31.5213 56.4983 31.8604 56.6408 32.1105 56.8944C32.3605 57.148 32.501 57.5317 32.501 57.8904V59.2426M25.0476 56.5078H23.8333C23.4797 56.5078 23.1406 56.6503 22.8905 56.9039C22.6405 57.1575 22.5 57.5014 22.5 57.8601L22.5 67.1477C22.5 67.5064 22.6405 67.8503 22.8905 68.1039C23.1406 68.3575 23.4797 68.5 23.8333 68.5H24.6429M25.7143 55.5L29.3452 55.5C29.7134 55.5 30.0119 55.8027 30.0119 56.1761V57.816C30.0119 58.1894 29.7124 58.5013 29.3443 58.5013L25.75 58.5C25.3818 58.5 25.0476 58.1894 25.0476 57.816V56.1761C25.0476 55.8027 25.3461 55.5 25.7143 55.5ZM27.6868 61.5H33.3132C33.9686 61.5 34.5 62.0424 34.5 62.7115V68.2885C34.5 68.9576 33.9686 69.5 33.3132 69.5H27.6868C27.0314 69.5 26.5 68.9576 26.5 68.2885V62.7115C26.5 62.0424 27.0314 61.5 27.6868 61.5Z" stroke="#09A098" stroke-linecap="round" stroke-linejoin="round"/>
<path d="M58.5 59.5V55.5H66.5V59.35M58.5 67.45H56.9C56.5287 67.45 56.1726 67.3025 55.9101 67.0399C55.6475 66.7774 55.5 66.4213 55.5 66.05V60.9C55.5 60.5287 55.6475 60.1726 55.9101 59.9101C56.1726 59.6475 56.5287 59.5 56.9 59.5L68.1 59.55C68.4713 59.55 68.8274 59.6975 69.0899 59.9601C69.3525 60.2226 69.5 60.5787 69.5 60.95V66.1C69.5 66.4713 69.3525 66.8274 69.0899 67.0899C68.8274 67.3525 68.4713 67.5 68.1 67.5H66.5M58.5 64.5H66.5V69.5H58.5V64.5Z" stroke="#09A098" stroke-linecap="round" stroke-linejoin="round"/>
<path d="M91.5 57.2794C91.5 56.4992 92.3536 56.0196 93.0199 56.4252L101.597 61.6458C102.237 62.0354 102.237 62.9646 101.597 63.3542L93.0199 68.5748C92.3535 68.9804 91.5 68.5008 91.5 67.7206V57.2794Z" stroke="#09A098" stroke-linecap="round" stroke-linejoin="round"/>
<path d="M130.25 60.5909V62.5L131.161 63.4545M132.988 65.9045L132.776 68.3418C132.748 68.6591 132.608 68.9542 132.384 69.1686C132.159 69.383 131.865 69.5013 131.561 69.5H128.933C128.629 69.5013 128.335 69.383 128.11 69.1686C127.885 68.9542 127.746 68.6591 127.718 68.3418L127.506 65.9045M127.512 59.0955L127.724 56.6582C127.752 56.342 127.891 56.0478 128.114 55.8336C128.338 55.6193 128.63 55.5003 128.933 55.5H131.574C131.878 55.4987 132.171 55.617 132.396 55.8314C132.621 56.0458 132.761 56.3409 132.788 56.6582L133 59.0955M134.5 62.5C134.5 64.9602 132.597 66.9545 130.25 66.9545C127.903 66.9545 126 64.9602 126 62.5C126 60.0398 127.903 58.0455 130.25 58.0455C132.597 58.0455 134.5 60.0398 134.5 62.5Z" stroke="#09A098" stroke-linecap="round" stroke-linejoin="round"/>
<path d="M164.5 58.5L164.5 66.5M158.038 64.9302C158.635 66.4887 159.734 67.784 161.147 68.5954C162.56 69.4067 164.2 69.6839 165.787 69.3798C167.375 69.0757 168.812 68.209 169.853 66.9275C170.895 65.646 171.477 64.0288 171.499 62.3517C171.522 60.6745 170.984 59.0411 169.978 57.7297C168.971 56.4183 167.558 55.5101 165.979 55.1599C164.4 54.8096 162.754 55.0389 161.319 55.8088C159.885 56.5786 158.752 57.8414 158.113 59.3819M160.5 59.5H157.5V56.5M166.583 59.5H163.458C163.072 59.5 162.701 59.658 162.427 59.9393C162.154 60.2206 162 60.6022 162 61C162 61.3978 162.154 61.7794 162.427 62.0607C162.701 62.342 163.072 62.5 163.458 62.5H165.542C165.928 62.5 166.299 62.658 166.573 62.9393C166.846 63.2206 167 63.6022 167 64C167 64.3978 166.846 64.7794 166.573 65.0607C166.299 65.342 165.928 65.5 165.542 65.5H162" stroke="#09A098" stroke-linecap="round" stroke-linejoin="round"/>
<path d="M200.5 67.86L200.5 66.9267C200.5 66.2831 200.245 65.6658 199.792 65.2108C199.338 64.7557 198.723 64.5 198.082 64.5H193.918C193.277 64.5 192.662 64.7557 192.208 65.2108C191.755 65.6658 191.5 66.2831 191.5 66.9267V67.86M203.5 60.5V64.5M205.5 62.5H201.5M198.5 60C198.5 61.3807 197.381 62.5 196 62.5C194.619 62.5 193.5 61.3807 193.5 60C193.5 58.6193 194.619 57.5 196 57.5C197.381 57.5 198.5 58.6193 198.5 60Z" stroke="#09A098" stroke-linecap="round" stroke-linejoin="round"/>
<path d="M229.693 61.4062L234.287 59.2188M229.693 63.5938L234.287 65.7812M230.459 62.5C230.459 63.9497 229.284 65.125 227.834 65.125C226.384 65.125 225.209 63.9497 225.209 62.5C225.209 61.0503 226.384 59.875 227.834 59.875C229.284 59.875 230.459 61.0503 230.459 62.5ZM239.209 58.125C239.209 59.5747 238.034 60.75 236.584 60.75C235.134 60.75 233.959 59.5747 233.959 58.125C233.959 56.6753 235.134 55.5 236.584 55.5C238.034 55.5 239.209 56.6753 239.209 58.125ZM239.209 66.875C239.209 68.3247 238.034 69.5 236.584 69.5C235.134 69.5 233.959 68.3247 233.959 66.875C233.959 65.4253 235.134 64.25 236.584 64.25C238.034 64.25 239.209 65.4253 239.209 66.875Z" stroke="#09A098"/>
<path d="M269.209 68.5V63.5H263.209V68.5M263.209 56.5V59.5H267.709M270.876 68.5H261.542C261.189 68.5 260.85 68.3595 260.6 68.1095C260.349 67.8594 260.209 67.5203 260.209 67.1667V57.8333C260.209 57.4797 260.349 57.1406 260.6 56.8905C260.85 56.6405 261.189 56.5 261.542 56.5H268.209L272.209 60.5V67.1667C272.209 67.5203 272.069 67.8594 271.818 68.1095C271.568 68.3595 271.229 68.5 270.876 68.5Z" stroke="#09A098" stroke-linecap="round" stroke-linejoin="round"/>
<path d="M307.123 61.4055C307.238 62.1308 307.238 62.8697 307.123 63.595M299.114 55.5861C299.84 55.4713 300.579 55.4713 301.304 55.5862M293.295 63.5945C293.18 62.8692 293.18 62.1303 293.295 61.405M301.303 69.4139C300.578 69.5287 299.839 69.5287 299.114 69.4138M305.872 66.6149C305.44 67.209 304.918 67.7315 304.323 68.1631M304.324 56.8372C304.918 57.2689 305.44 57.7914 305.872 58.3855M294.546 58.3851C294.978 57.791 295.5 57.2685 296.094 56.8369M296.094 68.1628C295.5 67.7311 294.978 67.2086 294.546 66.6145M300.209 59V62.5M300.709 65.5C300.709 65.7761 300.485 66 300.209 66C299.933 66 299.709 65.7761 299.709 65.5C299.709 65.2239 299.933 65 300.209 65C300.485 65 300.709 65.2239 300.709 65.5Z" stroke="#09A098" stroke-linecap="round"/>
<path d="M337.975 69.5C339.92 68.2469 341.209 66.0519 341.209 63.5534C341.209 59.6579 338.075 56.5 334.209 56.5C330.343 56.5 327.209 59.6579 327.209 63.5534C327.209 66.0519 328.498 68.2469 330.443 69.5C330.916 67.854 332.423 66.6506 334.209 66.6506C335.995 66.6506 337.502 67.854 337.975 69.5Z" stroke="#09A098" stroke-linejoin="round"/>
<path d="M336.709 62C336.709 63.3807 335.59 64.5 334.209 64.5C332.828 64.5 331.709 63.3807 331.709 62C331.709 60.6193 332.828 59.5 334.209 59.5C335.59 59.5 336.709 60.6193 336.709 62Z" stroke="#09A098" stroke-linejoin="round"/>
<path d="M371.359 60.75L366.809 65.3L364.709 63.2M375.209 62.5C375.209 66.366 372.075 69.5 368.209 69.5C364.343 69.5 361.209 66.366 361.209 62.5C361.209 58.634 364.343 55.5 368.209 55.5C372.075 55.5 375.209 58.634 375.209 62.5Z" stroke="#09A098" stroke-miterlimit="10" stroke-linecap="round" stroke-linejoin="round"/>
<path d="M396.209 56.5H408.209M396.209 68.5L408.209 68.5M401.099 64.5L408.209 64.5M400.766 60.5L408.209 60.5M396.209 60.5L398.209 62.5L396.209 64.5" stroke="#09A098" stroke-linecap="round" stroke-linejoin="round"/>
<path d="M28.5 100V96.5H27.625M28.5 94.3125V93.4375M27.6338 100H29.307M35.5 96.5C35.5 100.366 32.366 103.5 28.5 103.5C24.634 103.5 21.5 100.366 21.5 96.5C21.5 92.634 24.634 89.5 28.5 89.5C32.366 89.5 35.5 92.634 35.5 96.5Z" stroke="#09A098" stroke-width="0.977942" stroke-linecap="round" stroke-linejoin="round"/>
<path d="M60.2488 102.5H57.7496C57.4182 102.5 57.1004 102.368 56.866 102.134C56.6317 101.9 56.5 101.582 56.5 101.25V91.7496C56.5 91.4182 56.6317 91.1004 56.866 90.866C57.1004 90.6317 57.4182 90.5 57.7496 90.5H60.2488M65.376 99.6245L68.5 96.5005M68.5 96.5005L65.376 93.3764M68.5 96.5005H60" stroke="#09A098" stroke-linecap="round" stroke-linejoin="round"/>
<path d="M89.5 89.5L99.65 91.95L100.7 97.2L97.2 100.7L91.95 99.65L89.5 89.5ZM89.5 89.5L94.8102 94.8102M96.5 101.4L101.4 96.5L103.5 98.6L98.6 103.5L96.5 101.4ZM97.2 95.8C97.2 96.5732 96.5732 97.2 95.8 97.2C95.0268 97.2 94.4 96.5732 94.4 95.8C94.4 95.0268 95.0268 94.4 95.8 94.4C96.5732 94.4 97.2 95.0268 97.2 95.8Z" stroke="#09A098" stroke-width="0.988235" stroke-linecap="round" stroke-linejoin="round"/>
<path d="M128.263 94.01C128.444 93.4977 128.8 93.0658 129.268 92.7907C129.737 92.5156 130.288 92.415 130.824 92.5068C131.36 92.5986 131.846 92.8768 132.196 93.2922C132.546 93.7076 132.738 94.2334 132.737 94.7764C132.737 96.3093 130.5 97 130.5 97V98M131 100.5C131 100.776 130.776 101 130.5 101C130.224 101 130 100.776 130 100.5C130 100.224 130.224 100 130.5 100C130.776 100 131 100.224 131 100.5ZM137.5 96.5C137.5 100.366 134.366 103.5 130.5 103.5C126.634 103.5 123.5 100.366 123.5 96.5C123.5 92.634 126.634 89.5 130.5 89.5C134.366 89.5 137.5 92.634 137.5 96.5Z" stroke="#09A098" stroke-linecap="round" stroke-linejoin="round"/>
<path d="M171 103L166.25 98.25M167.5 94.5C167.5 97.2614 165.261 99.5 162.5 99.5C159.739 99.5 157.5 97.2614 157.5 94.5C157.5 91.7386 159.739 89.5 162.5 89.5C165.261 89.5 167.5 91.7386 167.5 94.5Z" stroke="#09A098" stroke-linecap="round" stroke-linejoin="round"/>
<path d="M201.907 89.5H196.574C196.024 89.5 195.496 89.7458 195.107 90.1834C194.719 90.621 194.5 91.2145 194.5 91.8333C194.5 92.4522 194.719 93.0457 195.107 93.4832C195.496 93.9208 196.024 94.1667 196.574 94.1667M196.574 94.1667H200.426C200.976 94.1667 201.504 94.4125 201.893 94.8501C202.281 95.2877 202.5 95.8812 202.5 96.5C202.5 97.1188 202.281 97.7123 201.893 98.1499C201.504 98.5875 200.976 98.8333 200.426 98.8333M196.574 94.1667C196.024 94.1667 195.496 94.4125 195.107 94.8501C194.719 95.2877 194.5 95.8812 194.5 96.5C194.5 97.1188 194.719 97.7123 195.107 98.1499C195.496 98.5875 196.024 98.8333 196.574 98.8333H200.426M200.426 98.8333C200.976 98.8333 201.504 99.0792 201.893 99.5168C202.281 99.9543 202.5 100.548 202.5 101.167C202.5 101.786 202.281 102.379 201.893 102.817C201.504 103.254 200.976 103.5 200.426 103.5H194.5" stroke="#09A098" stroke-linecap="round" stroke-linejoin="round"/>
<path d="M232.5 103.5V89.5M236.618 99.3824L239.5 96.5M239.5 96.5L236.618 93.6176M239.5 96.5H234.971M228.382 93.6477L225.5 96.5M225.5 96.5L228.382 99.3824M225.5 96.5H230.029" stroke="#09A098" stroke-linecap="round" stroke-linejoin="round"/>
<path d="M270.55 100.65C270.771 100.485 270.816 100.171 270.65 99.9503C270.485 99.7293 270.171 99.6842 269.95 99.8497L270.55 100.65ZM266.5 101.5V102L266.508 102L266.5 101.5ZM259.5 96.5L259.061 96.2603C258.982 96.4051 258.98 96.5797 259.054 96.7268L259.5 96.5ZM262.862 93.15C263.083 92.9843 263.128 92.6709 262.963 92.45C262.797 92.2291 262.483 92.1843 262.263 92.35L262.862 93.15ZM265.164 91.65L265.052 91.1627C264.874 91.2036 264.732 91.3383 264.682 91.514C264.633 91.6898 264.683 91.8786 264.813 92.0066L265.164 91.65ZM266.5 91.5L266.499 92H266.5V91.5ZM273.5 96.5L273.939 96.739C274.018 96.5943 274.02 96.42 273.946 96.2732L273.5 96.5ZM272.125 98.4938L271.775 98.8503C271.874 98.9474 272.008 98.9992 272.147 98.9933C272.285 98.9874 272.415 98.9243 272.505 98.8191L272.125 98.4938ZM260.354 89.6464C260.158 89.4512 259.842 89.4512 259.646 89.6464C259.451 89.8417 259.451 90.1583 259.646 90.3536L260.354 89.6464ZM272.646 103.354C272.842 103.549 273.158 103.549 273.354 103.354C273.549 103.158 273.549 102.842 273.354 102.646L272.646 103.354ZM264.652 95.7346L264.19 95.5433L264.19 95.5433L264.652 95.7346ZM264.652 97.2654L264.19 97.4567L264.19 97.4567L264.652 97.2654ZM265.086 97.9142L264.732 98.2678L264.732 98.2678L265.086 97.9142ZM269.95 99.8497C268.953 100.597 267.762 100.98 266.492 101L266.508 102C267.973 101.976 269.372 101.532 270.55 100.65L269.95 99.8497ZM266.5 101C264.469 101 262.841 99.8595 261.691 98.6548C261.12 98.0569 260.681 97.4571 260.385 97.0065C260.237 96.7817 260.126 96.5952 260.052 96.4664C260.015 96.4019 259.988 96.352 259.97 96.319C259.961 96.3025 259.954 96.2902 259.95 96.2825C259.948 96.2786 259.947 96.2759 259.946 96.2743C259.946 96.2735 259.946 96.273 259.945 96.2728C259.945 96.2727 259.945 96.2727 259.945 96.2728C259.945 96.2728 259.945 96.2729 259.945 96.2729C259.946 96.273 259.946 96.2732 259.5 96.5C259.054 96.7268 259.055 96.727 259.055 96.7272C259.055 96.7273 259.055 96.7275 259.055 96.7277C259.055 96.7281 259.055 96.7285 259.056 96.729C259.056 96.73 259.057 96.7313 259.058 96.733C259.059 96.7362 259.062 96.7406 259.064 96.7462C259.07 96.7574 259.079 96.7732 259.089 96.7933C259.111 96.8335 259.143 96.891 259.184 96.9633C259.267 97.1079 259.389 97.3121 259.55 97.556C259.87 98.0429 260.345 98.6932 260.968 99.3452C262.204 100.641 264.076 102 266.5 102V101ZM259.939 96.7397C260.712 95.3248 261.611 94.0889 262.862 93.15L262.263 92.35C260.853 93.4069 259.871 94.7776 259.061 96.2603L259.939 96.7397ZM265.276 92.1373C265.677 92.0451 266.087 91.9991 266.499 92L266.501 91C266.013 90.9989 265.527 91.0535 265.052 91.1627L265.276 92.1373ZM266.5 92C268.531 92 270.159 93.1406 271.309 94.3453C271.88 94.9432 272.319 95.5429 272.615 95.9935C272.763 96.2183 272.874 96.4048 272.948 96.5337C272.985 96.5981 273.012 96.648 273.03 96.681C273.039 96.6975 273.046 96.7098 273.05 96.7175C273.052 96.7214 273.053 96.7242 273.054 96.7257C273.054 96.7265 273.054 96.727 273.055 96.7272C273.055 96.7273 273.055 96.7273 273.055 96.7272C273.055 96.7272 273.055 96.7271 273.055 96.7271C273.054 96.727 273.054 96.7268 273.5 96.5C273.946 96.2732 273.945 96.273 273.945 96.2728C273.945 96.2727 273.945 96.2725 273.945 96.2723C273.945 96.272 273.945 96.2715 273.944 96.271C273.944 96.27 273.943 96.2687 273.942 96.2671C273.941 96.2638 273.938 96.2594 273.936 96.2538C273.93 96.2426 273.921 96.2268 273.911 96.2067C273.889 96.1665 273.857 96.109 273.816 96.0367C273.733 95.8921 273.611 95.688 273.45 95.444C273.13 94.9571 272.655 94.3069 272.032 93.6548C270.796 92.3595 268.924 91 266.5 91V92ZM273.061 96.261C272.691 96.9399 272.251 97.5792 271.746 98.1684L272.505 98.8191C273.055 98.1768 273.536 97.4797 273.939 96.739L273.061 96.261ZM272.476 98.1372L265.514 91.2935L264.813 92.0066L271.775 98.8503L272.476 98.1372ZM259.646 90.3536L272.646 103.354L273.354 102.646L260.354 89.6464L259.646 90.3536ZM264.732 94.7322C264.5 94.9644 264.316 95.24 264.19 95.5433L265.114 95.926C265.19 95.744 265.3 95.5786 265.439 95.4393L264.732 94.7322ZM264.19 95.5433C264.065 95.8466 264 96.1717 264 96.5H265C265 96.303 265.039 96.108 265.114 95.926L264.19 95.5433ZM264 96.5C264 96.8283 264.065 97.1534 264.19 97.4567L265.114 97.074C265.039 96.892 265 96.697 265 96.5H264ZM264.19 97.4567C264.316 97.76 264.5 98.0356 264.732 98.2678L265.439 97.5607C265.3 97.4214 265.19 97.256 265.114 97.074L264.19 97.4567ZM264.732 98.2678C264.964 98.4999 265.24 98.6841 265.543 98.8097L265.926 97.8858C265.744 97.8104 265.579 97.6999 265.439 97.5607L264.732 98.2678ZM265.543 98.8097C265.847 98.9353 266.172 99 266.5 99V98C266.303 98 266.108 97.9612 265.926 97.8858L265.543 98.8097ZM266.5 99C266.828 99 267.153 98.9353 267.457 98.8097L267.074 97.8858C266.892 97.9612 266.697 98 266.5 98V99ZM267.457 98.8097C267.76 98.6841 268.036 98.4999 268.268 98.2678L267.561 97.5607C267.421 97.6999 267.256 97.8104 267.074 97.8858L267.457 98.8097Z" fill="#09A098"/>
<path d="M294.5 93.5H306.5M294.5 99.5H306.5M298.562 89.5L297 103.5M304.062 89.5L302.5 103.5" stroke="#09A098" stroke-linecap="round" stroke-linejoin="round"/>
<path d="M330.5 89.5L334.5 93.5L338.5 89.5M338.5 103.5L334.5 99.5L330.5 103.5M327.5 100.5L331.5 96.5L327.5 92.5M341.5 92.5L337.5 96.5L341.5 100.5" stroke="#09A098" stroke-linecap="round" stroke-linejoin="round"/>
<path d="M373.5 98.5L375.498 100.5L373.5 102.5M373.5 90.5L375.5 92.5001M375.5 92.5001L373.5 94.5M375.5 92.5001L373.967 92.5C371.13 92.5 368.532 94.1359 367.624 96.5C366.717 98.8641 364.337 100.587 361.5 100.587M375.481 100.5H373.965C372.127 100.5 370.392 99.8447 369.204 98.7016M361.573 92.4452C363.396 92.4452 365.044 93.1432 366.231 94.2694" stroke="#09A098" stroke-linecap="round" stroke-linejoin="round"/>
<path d="M399.948 95.5L402.216 90C402.721 90 403.206 90.1975 403.563 90.5492C403.92 90.9008 404.121 91.3777 404.121 91.875L403.996 94.5H407.59C407.775 94.4979 407.957 94.5353 408.125 94.6095C408.293 94.6837 408.442 94.793 408.563 94.9297C408.684 95.0664 408.773 95.2274 408.825 95.4014C408.876 95.5754 408.888 95.7583 408.861 95.9375L408.109 101.437C408.063 101.735 407.909 102.007 407.676 102.202C407.443 102.398 407.145 102.503 406.839 102.5H397.77C397.433 102.5 397.11 102.368 396.872 102.134C396.634 101.899 396.5 101.581 396.5 101.25V96.75C396.5 96.4185 396.634 96.1005 396.872 95.8661C397.11 95.6317 397.433 95.5 397.77 95.5H399.948ZM399.948 95.5H399.5V102.5" stroke="#09A098" stroke-linecap="round" stroke-linejoin="round"/>
<path d="M28.5 126.125V130.5L31.125 132.25M35.5 130.5C35.5 134.366 32.366 137.5 28.5 137.5C24.634 137.5 21.5 134.366 21.5 130.5C21.5 126.634 24.634 123.5 28.5 123.5C32.366 123.5 35.5 126.634 35.5 130.5Z" stroke="#09A098" stroke-linecap="round" stroke-linejoin="round"/>
<path d="M66.2704 132.729L62.4995 136.5L58.7285 132.729M58.7285 128.271L62.4995 124.5L66.2704 128.271" stroke="#09A098" stroke-width="1.03167" stroke-linecap="round" stroke-linejoin="round"/>
<path d="M94.5 124.5H102M94.5 136.5H102M94.5 130.5H102M91.5 125.5V123.5H90.5M90.5 135.5H92.5L91.3 136.5L92.5 137.5H90.5M90.5 129.5H92.5L90.5 131.5H92.5" stroke="#09A098" stroke-linecap="round" stroke-linejoin="round"/>
<path d="M124 126.491H125.5M125.5 126.491V136.009C125.5 136.405 125.653 136.784 125.925 137.063C126.198 137.343 126.567 137.5 126.952 137.5H134.048C134.433 137.5 134.802 137.343 135.075 137.063C135.347 136.784 135.5 136.405 135.5 136.009V126.491L125.5 126.491ZM125.5 126.491H137M128 126V125C128 124.448 128.448 124 129 124H132C132.552 124 133 124.448 133 125L133 126" stroke="#09A098" stroke-linecap="round" stroke-linejoin="round"/>
<path d="M157.924 127.5L171.076 127.5M160.5 130.5H163.5M165.5 130.5H168.5M160.5 133.5H163.5M165.5 133.5H168.5M157.5 125.328C157.5 124.871 157.88 124.5 158.348 124.5H170.652C171.12 124.5 171.5 124.871 171.5 125.328V135.672C171.5 136.129 171.12 136.5 170.652 136.5H158.348C157.88 136.5 157.5 136.129 157.5 135.672V125.328Z" stroke="#09A098" stroke-linecap="round" stroke-linejoin="round"/>
<path d="M192.5 126.362V124.5H204.5V126.362M196.375 136.5H200.625M198.5 124.5L198.5 136.5" stroke="#09A098" stroke-linecap="round" stroke-linejoin="round"/>
<path d="M232.5 124.5L234.508 128.45L239 129.087L235.75 132.159L236.517 136.5L232.5 134.45L228.483 136.5L229.25 132.159L226 129.087L230.491 128.45L232.5 124.5Z" stroke="#09A098" stroke-linecap="round" stroke-linejoin="round"/>
<path d="M269.129 132.688L266.503 130.062M266.503 130.062L263.875 132.689M266.503 130.062V136.625M271.841 134.1C272.462 133.764 272.952 133.233 273.235 132.589C273.517 131.945 273.576 131.227 273.402 130.546C273.227 129.866 272.83 129.263 272.272 128.831C271.714 128.4 271.027 128.166 270.321 128.166H269.519C269.326 127.426 268.967 126.739 268.469 126.156C267.971 125.574 267.346 125.112 266.642 124.804C265.937 124.496 265.172 124.35 264.403 124.378C263.634 124.407 262.882 124.607 262.202 124.966C261.523 125.325 260.934 125.832 260.48 126.449C260.026 127.066 259.719 127.777 259.582 128.529C259.444 129.281 259.481 130.054 259.687 130.791C259.894 131.527 260.266 132.207 260.776 132.779" stroke="#09A098" stroke-width="0.977941" stroke-linecap="round" stroke-linejoin="round"/>
<path d="M293.5 135.339V131.362M293.5 131.362H297.318M293.5 131.362L296.453 134.252C297.137 134.964 297.983 135.485 298.912 135.765C299.842 136.045 300.824 136.075 301.767 135.853C302.711 135.631 303.585 135.163 304.308 134.493C305.031 133.824 305.58 132.974 305.903 132.024M307.5 125.162V129.138M307.5 129.138H303.562M307.5 129.138L304.547 126.248C303.863 125.536 303.017 125.015 302.088 124.735C301.158 124.455 300.176 124.425 299.233 124.647C298.289 124.869 297.415 125.337 296.692 126.007C295.969 126.676 295.42 127.526 295.097 128.476" stroke="#09A098" stroke-linecap="round" stroke-linejoin="round"/>
<path d="M332 127.5L327.5 127.5M341.5 127.5L339.5 127.5M337 133.5L341.5 133.5M327.5 133.5H329.5M334 127.508C334 126.541 334.784 125.758 335.75 125.758C336.716 125.758 337.5 126.541 337.5 127.508C337.5 128.474 336.716 129.258 335.75 129.258C334.784 129.258 334 128.474 334 127.508ZM335 133.479C335 134.446 334.216 135.229 333.25 135.229C332.284 135.229 331.5 134.446 331.5 133.479C331.5 132.513 332.284 131.729 333.25 131.729C334.216 131.729 335 132.513 335 133.479Z" stroke="#09A098" stroke-linecap="round" stroke-linejoin="round"/>
<path d="M375.5 127.643L371.045 130.5L375.5 133.357V127.643Z" stroke="#09A098" stroke-linecap="round" stroke-linejoin="round"/>
<path d="M369.773 126.5H362.773C362.07 126.5 361.5 127.012 361.5 127.643V133.357C361.5 133.988 362.07 134.5 362.773 134.5H369.773C370.476 134.5 371.045 133.988 371.045 133.357V127.643C371.045 127.012 370.476 126.5 369.773 126.5Z" stroke="#09A098" stroke-linecap="round" stroke-linejoin="round"/>
<path d="M405.125 127.875L402.629 130.559M402.629 130.559L399.875 133.125M402.629 130.559L399.875 127.875M402.629 130.559L405.125 133.125M409.5 130.5C409.5 134.366 406.366 137.5 402.5 137.5C398.634 137.5 395.5 134.366 395.5 130.5C395.5 126.634 398.634 123.5 402.5 123.5C406.366 123.5 409.5 126.634 409.5 130.5Z" stroke="#09A098" stroke-width="0.977941" stroke-linecap="round" stroke-linejoin="round"/>
<path d="M35.5 158.5H21.5L26.5 165.069V169.611L29.5 171V165.069L35.5 158.5Z" stroke="#09A098" stroke-linecap="round" stroke-linejoin="round"/>
<path d="M62.5033 162.021L62.5033 164.72M61.3282 158.666L55.5254 168.45C55.4058 168.66 55.3425 168.897 55.3418 169.139C55.3411 169.38 55.4031 169.618 55.5216 169.828C55.6401 170.038 55.8109 170.213 56.0171 170.335C56.2233 170.458 56.4577 170.524 56.6969 170.526H68.3025C68.5417 170.524 68.7761 170.458 68.9823 170.335C69.1885 170.213 69.3593 170.038 69.4778 169.828C69.5963 169.618 69.6583 169.38 69.6576 169.139C69.6569 168.897 69.5936 168.66 69.474 168.45L63.6712 158.666C63.5491 158.463 63.3771 158.295 63.1719 158.178C62.9667 158.061 62.7352 158 62.4997 158C62.2642 158 62.0327 158.061 61.8275 158.178C61.6223 158.295 61.4503 158.463 61.3282 158.666ZM62.9997 167.5C62.9997 167.776 62.7758 168 62.4997 168C62.2235 168 61.9997 167.776 61.9997 167.5C61.9997 167.224 62.2235 167 62.4997 167C62.7758 167 62.9997 167.224 62.9997 167.5Z" stroke="#09A098" stroke-linecap="round" stroke-linejoin="round"/>
<path d="M103 158.278L93.5659 167.518M98.6085 166.429L103 170.722M93.5659 161.482L96.6471 164.5M94.2647 159.833C94.2647 161.122 93.1981 162.167 91.8824 162.167C90.5666 162.167 89.5 161.122 89.5 159.833C89.5 158.545 90.5666 157.5 91.8824 157.5C93.1981 157.5 94.2647 158.545 94.2647 159.833ZM94.2647 169.167C94.2647 170.455 93.1981 171.5 91.8824 171.5C90.5666 171.5 89.5 170.455 89.5 169.167C89.5 167.878 90.5666 166.833 91.8824 166.833C93.1981 166.833 94.2647 167.878 94.2647 169.167Z" stroke="#09A098" stroke-linecap="round" stroke-linejoin="round"/>
<path d="M126.5 162.5V163.5M134.5 165.5V166.5M123.5 159.75C123.5 159.75 126.596 161.097 130.5 159.736C134.404 158.375 137.5 159.75 137.5 159.75V169.277C137.5 169.277 134.404 167.902 130.5 169.263C126.596 170.624 123.5 169.277 123.5 169.277V159.75ZM132.5 164.5C132.5 165.881 131.605 167 130.5 167C129.395 167 128.5 165.881 128.5 164.5C128.5 163.119 129.395 162 130.5 162C131.605 162 132.5 163.119 132.5 164.5Z" stroke="#09A098" stroke-linecap="round" stroke-linejoin="round"/>
<path d="M158.5 162.976C158.5 162.813 158.579 162.66 158.713 162.567L164.5 158.5L170.287 162.567C170.421 162.66 170.5 162.813 170.5 162.976V170C170.5 170.276 170.276 170.5 170 170.5H166.5V165.5H162.5V170.5H159C158.724 170.5 158.5 170.276 158.5 170V162.976Z" stroke="#09A098" stroke-linejoin="round"/>
<path d="M205.503 169.148C205.503 169.508 205.357 169.853 205.098 170.108C204.839 170.362 204.488 170.505 204.122 170.505L192.881 170.5C192.515 170.5 192.164 170.357 191.905 170.103C191.646 169.848 191.5 169.503 191.5 169.143V159.857C191.5 159.497 191.646 159.152 191.905 158.897C192.164 158.643 192.515 158.5 192.881 158.5H196.376L198.012 160.5H204.119C204.485 160.5 204.836 160.643 205.095 160.897C205.354 161.152 205.5 161.497 205.5 161.857L205.503 169.148Z" stroke="#09A098" stroke-linecap="round" stroke-linejoin="round"/>
<path d="M232.947 160.921L226.237 167.631L225.342 171.658L229.368 170.763L236.079 164.053M235.634 158.234C236.621 157.247 238.124 157.151 238.993 158.019C239.861 158.887 239.765 160.391 238.778 161.377L237.885 162.271L234.741 159.127L235.634 158.234Z" stroke="#09A098" stroke-linecap="round" stroke-linejoin="round"/>
<path d="M272.5 163.227C272.5 167.682 266.5 171.5 266.5 171.5C266.5 171.5 260.5 167.682 260.5 163.227C260.5 161.708 261.132 160.252 262.257 159.177C263.383 158.103 264.909 157.5 266.5 157.5C268.091 157.5 269.617 158.103 270.743 159.177C271.868 160.252 272.5 161.708 272.5 163.227Z" stroke="#09A098" stroke-linecap="round" stroke-linejoin="round"/>
<path d="M266.5 164.5C267.605 164.5 268.5 163.605 268.5 162.5C268.5 161.395 267.605 160.5 266.5 160.5C265.395 160.5 264.5 161.395 264.5 162.5C264.5 163.605 265.395 164.5 266.5 164.5Z" stroke="#09A098" stroke-linecap="round" stroke-linejoin="round"/>
<path d="M306.5 162.883V170.5H294.5V162.883M299 165.5H302M293.5 158.5H307.5V162.5H293.5V158.5Z" stroke="#09A098" stroke-linecap="round" stroke-linejoin="round"/>
<path d="M329.5 164.5H336.269C337.167 164.5 338.028 164.131 338.663 163.475C339.297 162.818 339.654 161.928 339.654 161C339.654 160.072 339.297 159.182 338.663 158.525C338.028 157.869 337.167 157.5 336.269 157.5H329.5V164.5ZM329.5 164.5H337.115C338.013 164.5 338.874 164.869 339.509 165.525C340.143 166.182 340.5 167.072 340.5 168C340.5 168.928 340.143 169.818 339.509 170.475C338.874 171.131 338.013 171.5 337.115 171.5H329.5V164.5Z" stroke="#09A098" stroke-linecap="round" stroke-linejoin="round"/>
<path d="M369.5 157.5L363.5 166.5H368.066L367.5 171.5L373.5 162.5H368.971L369.5 157.5Z" stroke="#09A098" stroke-linecap="round" stroke-linejoin="round"/>
<path d="M408.5 157.5H403.5V162.5H408.5V157.5Z" stroke="#09A098" stroke-linecap="round" stroke-linejoin="round"/>
<path d="M408.5 165.5H403.5V170.5H408.5V165.5Z" stroke="#09A098" stroke-linecap="round" stroke-linejoin="round"/>
<path d="M400.5 165.5H395.5V170.5H400.5V165.5Z" stroke="#09A098" stroke-linecap="round" stroke-linejoin="round"/>
<path d="M35.5 193.5L28.5 200.5V204.5M35.5 193.5V197.5M35.5 193.5H31.5M25.5 193.5H21.5M21.5 193.5V197.5M21.5 193.5L26.75 198.75" stroke="#09A098" stroke-linecap="round" stroke-linejoin="round"/>
<path d="M58.125 200.5H60.75M56 196.5H69M56.7727 193.5H68.2273C68.9302 193.5 69.5 194.06 69.5 194.75V202.25C69.5 202.94 68.9302 203.5 68.2273 203.5H56.7727C56.0698 203.5 55.5 202.94 55.5 202.25V194.75C55.5 194.06 56.0698 193.5 56.7727 193.5Z" stroke="#09A098" stroke-linecap="round" stroke-linejoin="round"/>
<path d="M100.409 204.355L103.5 201.474M103.5 201.474L100.409 198.593M103.5 201.474L93.6823 201.508M93.7209 201.508C92.8018 201.518 91.905 201.231 91.1696 200.693C90.4343 200.154 89.9015 199.393 89.6541 198.529C89.4066 197.664 89.4583 196.889 89.8012 196.056C90.144 195.223 90.7587 194.524 91.55 194.067C92.3413 193.61 93.2648 193.421 94.1773 193.53C95.0897 193.638 95.9401 194.038 96.5963 194.666C97.2526 195.295 97.678 196.117 97.8066 197.006C97.9352 197.75 97.7597 198.656 97.3075 199.437" stroke="#09A098" stroke-linecap="round" stroke-linejoin="round"/>
<path d="M127.333 204.744C128.284 205.228 129.36 205.5 130.5 205.5C134.366 205.5 137.5 202.366 137.5 198.5C137.5 194.634 134.366 191.5 130.5 191.5C126.634 191.5 123.5 194.634 123.5 198.5C123.5 200.186 124.096 201.732 125.089 202.941C126.482 199.058 128.344 198.5 130.945 198.5H132.688M129.625 195.438L132.688 198.5M132.688 198.5L129.625 201.562" stroke="#09A098" stroke-linecap="round" stroke-linejoin="round"/>
<path d="M167 193.659V192.962C167 192.154 166.346 191.5 165.538 191.5H158.962C158.154 191.5 157.5 192.154 157.5 192.962V199.538C157.5 200.346 158.154 201 158.962 201H159.659M163.462 196H170.038C170.846 196 171.5 196.654 171.5 197.462V204.038C171.5 204.846 170.846 205.5 170.038 205.5H163.462C162.654 205.5 162 204.846 162 204.038V197.462C162 196.654 162.654 196 163.462 196Z" stroke="#09A098" stroke-linecap="round" stroke-linejoin="round"/>
<path d="M200.308 202.5L204.5 198.5L200.308 194.5M196.308 202.5L200.5 198.5L196.308 194.5M199.833 198.5H192.5" stroke="#09A098" stroke-width="0.941176" stroke-linecap="round" stroke-linejoin="round"/>
<path d="M225.5 198.5C225.5 198.5 228.045 193.5 232.5 193.5C236.955 193.5 239.5 198.5 239.5 198.5C239.5 198.5 236.955 203.5 232.5 203.5C228.045 203.5 225.5 198.5 225.5 198.5Z" stroke="#09A098" stroke-linecap="round" stroke-linejoin="round"/>
<path d="M232.5 200.5C233.605 200.5 234.5 199.605 234.5 198.5C234.5 197.395 233.605 196.5 232.5 196.5C231.395 196.5 230.5 197.395 230.5 198.5C230.5 199.605 231.395 200.5 232.5 200.5Z" stroke="#09A098" stroke-linecap="round" stroke-linejoin="round"/>
<path d="M267.626 198C267.626 198.345 267.346 198.625 267.001 198.625C266.656 198.625 266.376 198.345 266.376 198C266.376 197.655 266.656 197.375 267.001 197.375C267.346 197.375 267.626 197.655 267.626 198Z" stroke="#09A098" stroke-width="1.25"/>
<path d="M273.63 198C273.63 198.345 273.35 198.625 273.005 198.625C272.66 198.625 272.38 198.345 272.38 198C272.38 197.655 272.66 197.375 273.005 197.375C273.35 197.375 273.63 197.655 273.63 198Z" stroke="#09A098" stroke-width="1.25"/>
<path d="M261.621 197.995C261.621 198.34 261.341 198.62 260.996 198.62C260.651 198.62 260.371 198.34 260.371 197.995C260.371 197.65 260.651 197.37 260.996 197.37C261.341 197.37 261.621 197.65 261.621 197.995Z" stroke="#09A098" stroke-width="1.25"/>
<path d="M306.5 192.5L294.5 204.5M294.5 192.5L306.5 204.5" stroke="#09A098" stroke-linecap="round" stroke-linejoin="round"/>
<path d="M331 197.5H338M337.5 191.5V194.5M331.5 191.5V194.5M329.5 204.5H339.5C340.052 204.5 340.5 204.052 340.5 203.5V194.5C340.5 193.948 340.052 193.5 339.5 193.5H329.5C328.948 193.5 328.5 193.948 328.5 194.5V203.5C328.5 204.052 328.948 204.5 329.5 204.5Z" stroke="#09A098" stroke-linecap="round"/>
<path d="M362.585 200.668C362.142 201.023 361.901 201.33 361.723 201.737C361.546 202.144 361.472 202.595 361.509 203.046C361.546 203.498 361.693 203.934 361.935 204.313C362.176 204.692 362.505 205.001 362.888 205.208C363.272 205.416 363.697 205.516 364.123 205.498C364.548 205.48 364.959 205.346 365.315 205.107C365.672 204.868 365.962 204.534 366.156 204.137C366.351 203.74 366.441 203.28 366.435 202.841L372.997 202.845M371.012 194.417C370.94 193.839 370.806 193.467 370.558 193.103C370.31 192.739 369.974 192.446 369.581 192.254C369.189 192.062 368.754 191.976 368.32 192.006C367.885 192.035 367.466 192.179 367.102 192.423C366.738 192.666 366.443 193.002 366.245 193.396C366.047 193.79 365.953 194.23 365.972 194.672C365.992 195.114 366.123 195.544 366.355 195.919C366.586 196.294 366.922 196.605 367.288 196.82L364.004 202.763M371.891 205.175C372.406 205.399 372.781 205.464 373.206 205.421C373.632 205.379 374.042 205.22 374.397 204.961C374.753 204.701 375.041 204.35 375.233 203.942C375.426 203.533 375.517 203.081 375.497 202.63C375.477 202.179 375.347 201.743 375.12 201.367C374.893 200.99 374.576 200.685 374.2 200.482C373.824 200.278 373.403 200.182 372.977 200.205C372.551 200.227 372.125 200.376 371.764 200.6L368.487 194.652M373.254 203.282C373.49 203.139 373.571 202.823 373.435 202.577C373.299 202.33 372.997 202.245 372.761 202.388C372.525 202.53 372.444 202.846 372.58 203.093C372.717 203.34 373.018 203.424 373.254 203.282ZM368.733 195.099C368.969 194.957 369.05 194.641 368.914 194.394C368.778 194.147 368.476 194.063 368.24 194.205C368.004 194.348 367.923 194.664 368.059 194.91C368.196 195.157 368.497 195.242 368.733 195.099ZM364.175 203.255C364.411 203.113 364.492 202.797 364.356 202.55C364.22 202.303 363.918 202.219 363.682 202.361C363.446 202.504 363.365 202.819 363.501 203.066C363.638 203.313 363.939 203.398 364.175 203.255Z" stroke="#09A098" stroke-linecap="round" stroke-linejoin="round"/>
<path d="M399.5 192.5H408.5M399.5 204.5H408.5M399.5 198.5H408.5M397 192.5C397 192.776 396.776 193 396.5 193C396.224 193 396 192.776 396 192.5C396 192.224 396.224 192 396.5 192C396.776 192 397 192.224 397 192.5ZM397 198.5C397 198.776 396.776 199 396.5 199C396.224 199 396 198.776 396 198.5C396 198.224 396.224 198 396.5 198C396.776 198 397 198.224 397 198.5ZM397 204.5C397 204.776 396.776 205 396.5 205C396.224 205 396 204.776 396 204.5C396 204.224 396.224 204 396.5 204C396.776 204 397 204.224 397 204.5Z" stroke="#09A098" stroke-linecap="round"/>
</svg>
