<svg width="572" height="575" viewBox="0 0 572 575" fill="none" xmlns="http://www.w3.org/2000/svg">
<g clip-path="url(#clip0_6_180)">
<rect width="572" height="575" fill="white"/>
<path d="M574 59.8187H-2V502.116H574V59.8187Z" fill="#E3F8F8"/>
<g clip-path="url(#clip1_6_180)">
<path d="M86.4042 255.305C86.4042 403.405 206.463 523.464 354.563 523.464C502.663 523.464 622.722 403.405 622.722 255.305C622.722 107.205 502.663 -12.8535 354.563 -12.8535C206.463 -12.8535 86.4042 107.205 86.4042 255.305ZM496.028 255.305C496.028 333.434 432.692 396.771 354.563 396.771C276.434 396.771 213.097 333.434 213.097 255.305C213.097 177.176 276.434 113.84 354.563 113.84C432.692 113.84 496.028 177.176 496.028 255.305Z" fill="#F1FCFC"/>
<path d="M144.466 225.877C149.11 192.607 161.648 160.932 181.032 133.496C200.417 106.061 226.085 83.6626 255.893 68.1721C285.701 52.6817 318.782 44.5488 352.375 44.4531C385.967 44.3573 419.095 52.3013 448.99 67.6215C478.886 82.9418 504.681 105.193 524.222 132.518C543.763 159.842 556.481 191.446 561.315 224.688C566.149 257.931 562.958 291.848 552.008 323.606C541.059 355.364 522.669 384.041 498.375 407.241" stroke="#73D6D0" stroke-width="4" stroke-dasharray="30 30"/>
</g>
<circle cx="354.691" cy="254.983" r="339.097" stroke="#00B3AB" stroke-width="3" stroke-dasharray="4 20"/>
<path d="M401.272 465.659C354.66 476.344 305.821 471.27 262.402 451.231C218.982 431.192 183.434 397.319 161.324 354.916" stroke="#F9CE62" stroke-width="7" stroke-dasharray="30 20"/>
<path d="M202.249 72.3802C227.986 50.8949 257.973 35.0925 290.244 26.0092C322.516 16.9259 356.343 14.767 389.508 19.6739C422.672 24.5809 454.425 36.4429 482.684 54.4821C510.943 72.5213 535.069 96.3302 553.481 124.348C571.892 152.365 584.174 183.958 589.52 217.054C594.865 250.151 593.154 284.004 584.499 316.393C575.844 348.782 560.44 378.976 539.298 404.994C518.155 431.013 491.751 452.268 461.818 467.366" stroke="#D0DBDB"/>
<path d="M314.697 389.363L327.779 156.504H375.183L388.265 389.363H314.697Z" fill="#E3F8F8" stroke="#55727B" stroke-width="2.25" stroke-miterlimit="10"/>
<path d="M375.561 157.36H327.026L314.827 376.619L387.473 371.472L375.561 157.36Z" fill="#55727B"/>
<path d="M208.965 319.628H493.997V354.361H208.965V319.628Z" fill="#E3F8F8" stroke="#55727B" stroke-width="2.25" stroke-miterlimit="10"/>
<path d="M212.84 320.107H490.122V159.719H212.84V320.107Z" fill="white" stroke="#55727B" stroke-width="10" stroke-miterlimit="10"/>
<path d="M358.416 337.654H344.547V341.617H358.416V337.654Z" fill="#55727B"/>
<path d="M408.96 243.852H293.027V264.141H408.96V243.852Z" fill="white" stroke="#55727B" stroke-width="2.25" stroke-miterlimit="10"/>
<path d="M408.96 270.903H293.027V291.192H408.96V270.903Z" fill="white" stroke="#55727B" stroke-width="2.25" stroke-miterlimit="10"/>
<path d="M349.482 212.381C354.307 212.381 358.219 208.396 358.219 203.481C358.219 198.565 354.307 194.581 349.482 194.581C344.657 194.581 340.745 198.565 340.745 203.481C340.745 208.396 344.657 212.381 349.482 212.381Z" fill="#FFE49D"/>
<path d="M350.028 231.293C356.965 231.293 362.588 227.806 362.588 223.506C362.588 219.205 356.965 215.718 350.028 215.718C343.092 215.718 337.469 219.205 337.469 223.506C337.469 227.806 343.092 231.293 350.028 231.293Z" fill="#FFE49D"/>
<path d="M370.115 209.968C370.115 214.924 368.25 219.442 365.181 222.862C362.456 217.707 357.039 214.192 350.799 214.192C344.559 214.192 339.142 217.707 336.416 222.862C333.348 219.442 331.483 214.924 331.483 209.968C331.483 199.301 340.131 190.653 350.799 190.653C361.467 190.653 370.115 199.301 370.115 209.968Z" stroke="#55727B" stroke-width="2.33333"/>
<circle cx="350.798" cy="203.501" r="7.4575" stroke="#55727B" stroke-width="2.33333"/>
<path d="M68.6523 214.957H251.884L178.591 301.625V361.542L141.945 379.865V301.625L68.6523 214.957Z" fill="#FFF7E3"/>
<path d="M73.4478 209.613H256.68L183.387 296.282V356.199L146.741 374.522V296.282L73.4478 209.613Z" stroke="#55727B" stroke-width="3.5" stroke-linecap="round" stroke-linejoin="round"/>
</g>
<defs>
<clipPath id="clip0_6_180">
<rect width="572" height="575" fill="white"/>
</clipPath>
<clipPath id="clip1_6_180">
<rect width="576" height="442" fill="white" transform="translate(-2 60)"/>
</clipPath>
</defs>
</svg>
