<svg width="400" height="150" viewBox="0 0 400 150" fill="none" xmlns="http://www.w3.org/2000/svg">
<rect width="400" height="150" fill="white"/>
<g clip-path="url(#clip0_5_156)">
<path d="M43.8325 50.5511C43.8325 50.5511 45.4916 50.3581 47.1506 50.3581C48.8097 50.3581 50.4688 50.5511 50.4688 50.5511L51.8742 56.5295C53.7482 56.9951 55.5143 57.7314 57.128 58.6941L62.3765 55.4536C62.3765 55.4536 63.6869 56.4832 64.86 57.6492C66.0332 58.8153 67.069 60.1178 67.069 60.1178L63.8088 65.3344C64.7774 66.9384 65.5182 68.6938 65.9866 70.5565L72.0014 71.9534C72.0014 71.9534 72.1955 73.6024 72.1955 75.2515C72.1955 76.9005 72.0014 78.5495 72.0014 78.5495L65.9866 79.9465C65.5182 81.8091 64.7774 83.5645 63.8088 85.1685L67.069 90.3852C67.069 90.3852 66.0332 91.6877 64.86 92.8537C63.6869 94.0198 62.3765 95.0494 62.3765 95.0494L57.128 91.8088C55.5143 92.7716 53.7482 93.5079 51.8742 93.9735L50.4688 99.9518C50.4688 99.9518 48.8097 100.145 47.1506 100.145C45.4916 100.145 43.8325 99.9518 43.8325 99.9518L42.4271 93.9735C40.5531 93.5079 38.787 92.7716 37.1732 91.8088L31.9248 95.0494C31.9248 95.0494 30.6144 94.0198 29.4413 92.8537C28.2681 91.6877 27.2323 90.3852 27.2323 90.3852L30.4925 85.1685C29.5239 83.5645 28.7831 81.8091 28.3147 79.9465L22.2999 78.5495C22.2999 78.5495 22.1058 76.9005 22.1058 75.2515C22.1058 73.6024 22.2999 71.9534 22.2999 71.9534L28.3147 70.5565C28.7831 68.6938 29.5239 66.9384 30.4925 65.3344L27.2323 60.1178C27.2323 60.1178 28.2681 58.8153 29.4413 57.6492C30.6144 56.4832 31.9248 55.4536 31.9248 55.4536L37.1732 58.6941C38.787 57.7314 40.5531 56.9951 42.4271 56.5295L43.8325 50.5511Z" fill="#D85427"/>
<path d="M52.9888 77.892C52.5017 78.962 51.7015 79.8939 50.7274 80.5497C49.6836 81.2401 48.4659 81.6197 47.1438 81.6542C46.2392 81.6542 45.4042 81.4817 44.6388 81.171C43.4559 80.6533 42.4817 79.8249 41.7859 78.8239C41.09 77.7884 40.7073 76.5803 40.6725 75.2687C40.6725 74.3713 40.8465 73.5429 41.1596 72.7836C41.6467 71.6445 42.4817 70.6435 43.4907 69.9877C44.5344 69.2974 45.7521 68.9177 47.0742 68.8832C47.9788 68.8832 48.8138 69.0558 49.5792 69.3664C50.7274 69.8497 51.7363 70.6781 52.3974 71.679C52.5713 71.9552 52.7453 72.2313 52.8844 72.5419L60.0168 70.7126C59.9124 70.4364 59.808 70.1948 59.7036 69.9187C58.6599 67.468 56.9203 65.3971 54.7284 63.9129C52.5365 62.4287 49.8924 61.5657 47.0394 61.5657C45.2303 61.6348 43.4211 62.0145 41.7859 62.7048C39.3157 63.7403 37.2282 65.4661 35.7321 67.6406C34.2361 69.8151 33.3663 72.4384 33.3663 75.2687C33.3663 77.1326 33.749 78.9275 34.4448 80.5842C35.4886 83.0349 37.2282 85.1059 39.42 86.5901C41.6119 88.0743 44.2561 88.9372 47.109 88.9372C48.9878 88.9372 50.7969 88.5575 52.4669 87.8672C54.9372 86.8317 57.0247 85.1059 58.5207 82.9314C59.1818 81.9649 59.7036 80.9294 60.1211 79.7904L52.9888 77.892Z" fill="white"/>
<path d="M85.3965 75.4214C85.3965 66.4612 92.0952 59.5552 101.359 59.5552C106.918 59.5552 111.835 62.3176 114.507 66.6029L108.45 70.0737C107.096 67.7362 104.459 66.3196 101.359 66.3196C95.9078 66.3196 92.4159 69.932 92.4159 75.386C92.4159 80.8401 95.9078 84.4525 101.359 84.4525C104.459 84.4525 107.132 83.0712 108.45 80.6984L114.507 84.1691C111.871 88.4899 106.954 91.2169 101.359 91.2169C92.1309 91.2877 85.3965 84.417 85.3965 75.4214Z" fill="#234652"/>
<path d="M116.717 79.7776C116.717 73.2965 121.883 68.2674 128.332 68.2674C134.782 68.2674 139.948 73.2611 139.948 79.7776C139.948 86.2587 134.782 91.2877 128.332 91.2877C121.883 91.2877 116.717 86.2941 116.717 79.7776ZM133.356 79.7776C133.356 76.6964 131.147 74.6423 128.332 74.6423C125.517 74.6423 123.308 76.6964 123.308 79.7776C123.308 82.8588 125.517 84.9129 128.332 84.9129C131.147 84.9129 133.356 82.8942 133.356 79.7776Z" fill="#234652"/>
<path d="M192.006 77.2985V90.6857H185.414V78.2547C185.414 75.5631 183.703 74.2881 181.601 74.2881C179.178 74.2881 177.539 75.6694 177.539 78.7859V90.6857H170.947V68.9049H177.539V70.9591C178.715 69.3299 180.924 68.3029 183.81 68.3029C188.229 68.3029 192.006 71.4195 192.006 77.2985Z" fill="#234652"/>
<path d="M195.889 63.0613C195.889 60.9364 197.671 59.1302 199.844 59.1302C201.982 59.1302 203.8 60.901 203.8 63.0613C203.8 65.1863 202.018 66.9925 199.844 66.9925C197.671 66.9925 195.889 65.1863 195.889 63.0613ZM196.531 68.9049H203.123V90.6856H196.531V68.9049Z" fill="#234652"/>
<path d="M216.271 75.1735V82.8942C216.271 84.7712 217.91 84.9483 220.796 84.7712V90.6856C212.209 91.571 209.714 88.9857 209.714 82.8942V75.1735H206.222V68.9049H209.714V64.7613L216.306 62.8134V68.9049H220.831V75.1735H216.271Z" fill="#234652"/>
<path d="M222.969 79.7776C222.969 73.2965 228.136 68.2674 234.585 68.2674C241.034 68.2674 246.201 73.2611 246.201 79.7776C246.201 86.2587 241.034 91.2877 234.585 91.2877C228.136 91.2877 222.969 86.2941 222.969 79.7776ZM239.609 79.7776C239.609 76.6964 237.4 74.6423 234.585 74.6423C231.77 74.6423 229.561 76.6964 229.561 79.7776C229.561 82.8588 231.77 84.9129 234.585 84.9129C237.4 84.9129 239.609 82.8942 239.609 79.7776Z" fill="#234652"/>
<path d="M265.05 66.8862V72.7653H276.452V79.4588H265.05V90.6502H258.03V60.1927H276.666V66.8862H265.05Z" fill="#234652"/>
<path d="M279.516 79.7776C279.516 73.2965 284.683 68.2674 291.132 68.2674C297.581 68.2674 302.748 73.2611 302.748 79.7776C302.748 86.2587 297.581 91.2877 291.132 91.2877C284.683 91.2877 279.516 86.2941 279.516 79.7776ZM296.156 79.7776C296.156 76.6964 293.947 74.6423 291.132 74.6423C288.317 74.6423 286.108 76.6964 286.108 79.7776C286.108 82.8588 288.317 84.9129 291.132 84.9129C293.947 84.9129 296.156 82.8942 296.156 79.7776Z" fill="#234652"/>
<path d="M319.601 68.4445V75.8464C316.893 75.4214 313.01 76.4839 313.01 80.8046V90.6502H306.418V68.9049H313.01V72.7653C313.9 69.8612 316.858 68.4445 319.601 68.4445Z" fill="#234652"/>
<path d="M355.553 77.2985V90.6857H348.962V77.8651C348.962 75.6694 347.893 74.2881 345.79 74.2881C343.581 74.2881 342.37 75.811 342.37 78.3964V90.6857H335.778V77.8651C335.778 75.6694 334.709 74.2881 332.607 74.2881C330.398 74.2881 329.186 75.811 329.186 78.3964V90.6857H322.594V68.9049H329.186V70.9236C330.184 69.4362 332.108 68.3029 335.065 68.3029C337.666 68.3029 339.591 69.3654 340.802 71.1716C342.014 69.4362 344.045 68.3029 347.144 68.3029C352.275 68.3029 355.553 71.8445 355.553 77.2985Z" fill="#234652"/>
<path d="M377.075 84.1337C377.075 89.1274 372.692 91.2877 367.953 91.2877C363.571 91.2877 360.221 89.6232 358.546 86.117L364.248 82.8942C364.818 84.5587 366.029 85.4795 367.989 85.4795C369.557 85.4795 370.34 84.9837 370.34 84.1337C370.34 81.7255 359.544 83.0004 359.544 75.4569C359.544 70.7112 363.571 68.3029 368.131 68.3029C371.694 68.3029 374.83 69.8612 376.683 72.9778L371.089 75.9881C370.483 74.8548 369.592 74.0756 368.167 74.0756C367.027 74.0756 366.314 74.5006 366.314 75.2798C366.314 77.7235 377.075 76.0943 377.075 84.1337Z" fill="#234652"/>
<path d="M166.137 68.9049V89.5878C166.137 96.9188 160.401 100 154.557 100C149.996 100 146.184 98.3 144.153 94.7231L149.747 91.5002C150.566 93.0231 151.849 94.2626 154.735 94.2626C157.799 94.2626 159.688 92.7044 159.688 89.5878V87.5691C158.227 89.3398 156.125 90.4023 153.274 90.4023C147.039 90.4023 142.478 85.3379 142.478 79.3526C142.478 73.3673 147.039 68.3029 153.274 68.3029C156.125 68.3029 158.227 69.3654 159.688 71.1361V68.9049H166.137ZM159.759 79.3526C159.759 76.3423 157.55 74.2881 154.45 74.2881C151.35 74.2881 149.141 76.3423 149.141 79.3526C149.141 82.3629 151.35 84.4171 154.45 84.4171C157.55 84.4171 159.759 82.3629 159.759 79.3526Z" fill="#234652"/>
</g>
<defs>
<clipPath id="clip0_5_156">
<rect width="356" height="50" fill="white" transform="translate(22 50)"/>
</clipPath>
</defs>
</svg>
