<svg width="400" height="150" viewBox="0 0 400 150" fill="none" xmlns="http://www.w3.org/2000/svg">
<rect width="400" height="150" fill="white"/>
<g clip-path="url(#clip0_5_149)">
<path d="M293.25 87.13H291.81L299.23 67.03H308.94L308.45 68.33H300.17L297 76.83H304.87L304.38 78.13H296.6L293.25 87.13ZM325.13 74.58C324.746 76.89 323.957 79.1141 322.8 81.15C321.794 83.0172 320.358 84.618 318.61 85.82C317.05 86.846 315.217 87.379 313.35 87.35C311.06 87.35 309.35 86.68 308.35 85.35C307.35 84.02 307.05 82.02 307.41 79.41C307.776 77.1169 308.552 74.9084 309.7 72.89C310.725 71.0313 312.205 69.4625 314 68.33C315.615 67.305 317.488 66.7605 319.4 66.76C321.65 66.76 323.31 67.43 324.3 68.76C325.29 70.09 325.56 72.09 325.15 74.56L325.13 74.58ZM319 68.06C317.411 68.0756 315.865 68.5782 314.57 69.5C313.065 70.5524 311.839 71.9564 311 73.59C309.991 75.3556 309.313 77.2907 309 79.3C308.68 81.55 308.91 83.3 309.72 84.43C310.53 85.56 311.92 86.18 313.86 86.18C315.407 86.1791 316.914 85.693 318.17 84.79C319.661 83.7184 320.867 82.2967 321.68 80.65C322.693 78.8076 323.37 76.7996 323.68 74.72C324.073 73.0274 323.835 71.2493 323.01 69.72C322.528 69.1395 321.912 68.6851 321.215 68.3959C320.518 68.1067 319.761 67.9914 319.01 68.06H319ZM330 78.4L326.81 87.08H325.37L332.79 66.98H337C341 66.98 342.67 68.64 342.13 71.93C341.894 73.5181 341.146 74.9859 340 76.11C338.86 77.2233 337.397 77.9478 335.82 78.18C336.82 83.62 337.35 86.54 337.48 87.08H336L334.47 78.4H330ZM330.5 77.19H334C335.616 77.2724 337.213 76.8151 338.54 75.89C339.121 75.4198 339.603 74.8393 339.958 74.182C340.313 73.5246 340.535 72.8034 340.61 72.06C341.02 69.59 339.67 68.37 336.61 68.37H333.69L330.5 77.19ZM350.78 84.34L363.55 67.12H365.62L358.34 87.22H356.94L361.48 74.85C362.74 71.43 363.48 69.41 363.82 68.69H363.73L350.18 87.17H349.42L349.33 68.69H349.24C348.84 70.13 348.16 72.02 347.24 74.58L342.52 87.26H341.17L348.59 67.16H350.59V84.34H350.78ZM375.83 81.55C375.66 82.6793 375.178 83.7388 374.44 84.61C373.69 85.4979 372.732 86.1852 371.65 86.61C370.45 87.0985 369.165 87.3432 367.87 87.33C367.101 87.3505 366.331 87.2766 365.58 87.11C364.812 86.9103 364.06 86.6529 363.33 86.34L363.55 84.86C364.925 85.6757 366.492 86.1106 368.09 86.12C369.593 86.1818 371.077 85.7575 372.32 84.91C372.854 84.5415 373.307 84.0675 373.651 83.5171C373.995 82.9668 374.223 82.3517 374.32 81.71C374.41 81.2342 374.41 80.7457 374.32 80.27C374.231 79.8714 374.045 79.5007 373.78 79.19C373.438 78.8564 373.078 78.5425 372.7 78.25C372.168 77.882 371.614 77.548 371.04 77.25C370.01 76.75 369.137 75.9748 368.52 75.01C368.083 74.1317 367.939 73.1361 368.11 72.17C368.268 71.1304 368.703 70.1527 369.37 69.34C370.074 68.5157 370.952 67.8567 371.94 67.41C372.984 66.9325 374.123 66.6999 375.27 66.73C376.083 66.7064 376.896 66.7837 377.69 66.96C378.451 67.158 379.191 67.4293 379.9 67.77L379.22 69.07C378.634 68.6597 377.981 68.3551 377.29 68.17C376.575 67.9628 375.834 67.8584 375.09 67.86C373.749 67.8175 372.432 68.226 371.35 69.02C370.389 69.7532 369.745 70.8267 369.55 72.02C369.365 72.8128 369.479 73.6459 369.87 74.36C370.425 75.1498 371.186 75.7724 372.07 76.16C373.038 76.6252 373.934 77.2281 374.73 77.95C375.161 78.3888 375.501 78.9089 375.73 79.48C375.909 80.1548 375.953 80.8581 375.86 81.55H375.83Z" fill="#D85427"/>
<path d="M116.86 76.29V84.29H122.16C120.63 85.4985 118.718 86.1193 116.77 86.04C115.636 86.0712 114.508 85.8609 113.462 85.423C112.415 84.985 111.474 84.3296 110.7 83.5C109.114 81.7583 108.274 79.4642 108.36 77.11C108.307 75.9097 108.494 74.7109 108.912 73.5842C109.329 72.4576 109.968 71.4259 110.79 70.55C111.576 69.6979 112.54 69.0288 113.613 68.5899C114.686 68.151 115.842 67.9531 117 68.01C120.92 68.01 123.66 69.72 124.92 73.32H137.47C136.683 69.15 134.715 65.2937 131.8 62.21C129.921 60.2832 127.663 58.7654 125.17 57.7519C122.677 56.7383 120.001 56.2509 117.31 56.32C113.185 56.2503 109.134 57.417 105.679 59.6697C102.223 61.9224 99.5208 65.1581 97.92 68.96C98.3455 69.975 98.6802 71.0258 98.92 72.1C99.0343 72.1361 99.1514 72.1629 99.27 72.18L106 73.55V80.74L99 82.23C98.7538 83.2765 98.4193 84.3001 98 85.29C99.6046 88.9843 102.263 92.1235 105.642 94.3148C109.022 96.5062 112.972 97.6523 117 97.61C122.75 97.61 127.48 95.94 131 92.44C136.22 87.22 137.26 80.56 137.57 77.55C137.642 77.1331 137.642 76.7069 137.57 76.29H116.86ZM48.41 80.43C48.0182 81.6835 47.3325 82.8252 46.41 83.76C45.6218 84.5118 44.6884 85.0946 43.667 85.4729C42.6456 85.8512 41.5577 86.017 40.47 85.96C39.3375 85.9937 38.2107 85.7866 37.1643 85.3521C36.1178 84.9177 35.1756 84.2659 34.4 83.44C32.8138 81.6983 31.9736 79.4042 32.06 77.05C32.0107 75.85 32.202 74.6522 32.6228 73.5273C33.0436 72.4024 33.6852 71.3731 34.51 70.5C35.2947 69.6448 36.2575 68.9724 37.3306 68.53C38.4036 68.0877 39.5606 67.8863 40.72 67.94C42.5309 67.8175 44.3287 68.3223 45.8111 69.3695C47.2935 70.4167 48.3702 71.9423 48.86 73.69L58.08 72.12C58.3966 70.7334 58.8801 69.3902 59.52 68.12C58.5514 65.9323 57.1964 63.937 55.52 62.23C53.6634 60.2687 51.4144 58.7207 48.9194 57.6869C46.4245 56.6531 43.7397 56.1567 41.04 56.23C38.2801 56.1617 35.5354 56.6588 32.9747 57.6906C30.414 58.7225 28.0915 60.2673 26.15 62.23C24.1738 64.1508 22.6142 66.4578 21.5682 69.0075C20.5222 71.5571 20.0122 74.2947 20.07 77.05C20.0222 79.7708 20.5244 82.4731 21.5464 84.9951C22.5684 87.5171 24.0891 89.8067 26.0175 91.7267C27.9459 93.6466 30.2421 95.1574 32.7685 96.1683C35.2949 97.1793 37.9995 97.6697 40.72 97.61C46.47 97.61 51.15 95.85 54.72 92.44C56.6788 90.5374 58.2273 88.2538 59.27 85.73C58.7241 84.6115 58.2984 83.4383 58 82.23L48.41 80.43Z" fill="#00B3AB"/>
<path d="M190.48 60.73C192.124 62.1495 194.223 62.9305 196.395 62.9305C198.567 62.9305 200.666 62.1495 202.31 60.73C203.069 60.0662 203.681 59.2508 204.107 58.3363C204.532 57.4218 204.761 56.4284 204.78 55.42C204.787 54.4087 204.569 53.4085 204.142 52.4919C203.715 51.5752 203.089 50.765 202.31 50.12C200.671 48.6907 198.57 47.9033 196.395 47.9033C194.22 47.9033 192.119 48.6907 190.48 50.12C189.709 50.7722 189.088 51.5836 188.66 52.4984C188.232 53.4133 188.007 54.41 188 55.42C188.025 56.4283 188.258 57.4206 188.685 58.3344C189.111 59.2483 189.723 60.0639 190.48 60.73Z" fill="#D85427"/>
<path d="M255.38 67.03C248.9 67.03 243.69 68.42 239.86 71.03C238.088 72.2206 236.582 73.7658 235.437 75.5679C234.293 77.37 233.534 79.3899 233.21 81.5C233.091 82.2752 233.014 83.0564 232.98 83.84C232.945 85.9694 233.491 88.068 234.56 89.91H220.3L225.79 73.99H228.71C234.29 73.99 237.97 71.65 239.82 66.93H228.39L234.65 49.25H226C222.76 55.32 219.75 59.55 217 61.89C214.48 63.96 210.7 65.62 205.53 67.02L202.79 74.02H210L204.43 89.94H193.94L202.13 67.01H186.13C186.13 67.01 178.16 89.5 178 89.96H173.46L179.17 74.04C179.616 72.8766 179.859 71.6455 179.89 70.4C179.89 67.48 178.45 65.95 175.57 65.86C171.224 65.7791 166.999 67.2988 163.7 70.13L150.14 81.19L155.14 67.07H139.14H138.24C139.627 70.218 140.309 73.6308 140.24 77.07C140.32 80.0379 139.81 82.9922 138.739 85.7612C137.668 88.5302 136.057 91.0588 134 93.2C132.565 94.7092 130.914 95.9967 129.1 97.02H137C139.29 97.02 142.21 95.81 145.77 93.34L160.92 80.43L157.59 89.92C157.188 90.8926 156.962 91.9285 156.92 92.98C156.92 95.63 159.17 97.11 163.58 97.11H260C263.07 96.5764 265.987 95.3822 268.55 93.61C270.441 92.2961 272.005 90.5664 273.123 88.5539C274.241 86.5413 274.883 84.2993 275 82C275.082 80.4623 274.822 78.9256 274.24 77.5C273.817 76.1164 273.005 74.884 271.9 73.95H283.9C289.79 73.95 293.35 71.79 294.52 67.03H255.38ZM256.19 90.86C255.71 90.8866 255.23 90.8866 254.75 90.86C250.03 90.86 247.69 89.6 247.69 87.03C247.702 86.4536 247.792 85.8816 247.96 85.33L251.96 74.04H262.08L256.19 90.86Z" fill="#D85427"/>
<path d="M103.41 80.11V73.86L96.41 72.6C95.9281 70.8071 95.1977 69.0905 94.24 67.5L98.24 61.61L93.84 57.21L88 61.31C86.3951 60.4794 84.7224 59.7869 83 59.24L81.64 52.05H75.39L74.09 59.24C72.3352 59.6607 70.6509 60.3344 69.09 61.24L63.19 57.24L58.79 61.38L62.79 67.67C61.8223 69.2077 61.1224 70.8983 60.72 72.67L53.52 73.93V80.23L60.68 81.53C61.1356 83.2891 61.8429 84.9731 62.78 86.53L58.78 92.36L63.1 96.88L69.04 92.88C70.5922 93.838 72.2769 94.5624 74.04 95.03L75.3 101.96H81.6L82.86 94.81C84.6594 94.3615 86.3889 93.6683 88 92.75L93.9 96.75L98.3 92.34L94.3 86.45C95.2518 84.8471 95.9786 83.1209 96.46 81.32L103.41 80.11ZM78.49 87.04C76.5498 87.04 74.6531 86.4647 73.0399 85.3867C71.4266 84.3088 70.1692 82.7767 69.4267 80.9841C68.6843 79.1916 68.49 77.2191 68.8685 75.3162C69.247 73.4132 70.1813 71.6652 71.5533 70.2933C72.9252 68.9213 74.6732 67.987 76.5762 67.6085C78.4791 67.23 80.4516 67.4242 82.2441 68.1667C84.0367 68.9092 85.5688 70.1666 86.6467 71.7799C87.7247 73.3931 88.3 75.2898 88.3 77.23C88.3013 78.5186 88.0485 79.7949 87.5559 80.9857C87.0634 82.1765 86.3409 83.2585 85.4297 84.1697C84.5184 85.0809 83.4365 85.8034 82.2457 86.2959C81.0549 86.7885 79.7786 87.0413 78.49 87.04Z" fill="#D85427"/>
</g>
<defs>
<clipPath id="clip0_5_149">
<rect width="360" height="55" fill="white" transform="translate(20 47.5)"/>
</clipPath>
</defs>
</svg>
