<?xml version="1.0" encoding="utf-8"?>
<!-- Generator: Adobe Illustrator 21.1.0, SVG Export Plug-In . SVG Version: 6.00 Build 0)  -->
<svg version="1.1" id="Layer_1" xmlns="http://www.w3.org/2000/svg" xmlns:xlink="http://www.w3.org/1999/xlink" x="0px" y="0px"
	 viewBox="0 0 926 242" style="enable-background:new 0 0 926 242;" xml:space="preserve">
<style type="text/css">
	.st0{fill:#E72B7A;}
	.st1{fill:#FFFFFF;}
	.st2{fill:#FFE179;}
</style>
<g>
	<circle class="st0" cx="116" cy="124.7" r="107"/>
	<g>
		<path class="st1" d="M65.4,88.1c0,0,13.9-23.3,38.1-28.1c23.1-4.5,34.6,6,34.6,21.1c0,11.5-14,24.1-32.1,28.1
			c-20.5,4.6-35.6,6-35.6,6l-2.5,57.7h23.6l0.5-39.6c0,0,23.6-2,43.6-13c16.5-9.1,29.1-29.6,22.1-51.6
			c-4.6-14.6-22.1-30.1-46.6-30.1C77.9,38.6,57,66.2,57,66.2L65.4,88.1z"/>
		<path class="st1" d="M118.1,134.2c0.5,0,5.8-1.8,10-3.5c5.1-2,10.5-5,10.5-5l32.1,73.2h-26.6L118.1,134.2z"/>
		<polygon class="st1" points="66.9,198.9 91.5,198.9 91.5,178.8 67.4,178.8 		"/>
	</g>
</g>
<g>
	<path class="st2" d="M454.1,98.3c4.3,0,8.4-2.1,12.3-6.4s5.9-8.5,5.9-12.8c0-2-0.6-3.6-1.8-4.7c-1.2-1.1-2.8-1.7-4.8-1.7
		c-4.5,0-8.7,2-12.5,6.1s-5.6,8.3-5.6,12.8C447.7,96.1,449.8,98.3,454.1,98.3z"/>
	<path class="st2" d="M909.8,35.6c-0.8-0.9-1.9-1.3-3.4-1.3c-6.6,0-11.5,2.1-14.6,6.1c-5.9,6.8-18,25.6-36.2,56.3
		c-5.8,10.3-9.8,17.1-12,20.6c-3.2-2.9-6-4.4-8.4-4.4c-7.5,0-15.8,2.4-24.7,7.1s-17.1,10.6-24.4,17.7c-7.3,7-13.5,15-18.4,23.7
		c-1.1,2-2.1,4-3,5.9c-0.2,0.1-0.5,0.3-0.8,0.5c-1.2,0.8-3.9,3-8.3,6.5c-4.4,3.5-9.3,7-14.7,10.5c-6.4,4-12.8,6-19.1,6
		c-9.9,0-14.9-2.9-14.9-8.7c0-3.3,7.9-9.3,23.6-18.1c0.8-0.4,2.5-1.1,4.9-2c2.5-0.9,4.7-2.1,6.6-3.7c1.9-1.6,2.9-3,2.9-4
		s-0.6-2.4-1.7-4.1c-1.1-1.8-2.2-2.9-3.1-3.4c-0.4-0.1-1.4-0.2-2.8-0.2c-1.5,0-4,0.6-7.7,1.8s-6.4,1.8-8.1,1.8
		c-1.8,0-2.6-0.3-2.6-0.9c0-1.8,2.4-4.5,7.2-8.2c4.8-3.6,8.8-6.4,12.1-8.3s6.3-3.2,8.9-4.1c-0.3,1.2-0.4,2.4-0.4,3.7
		c0,1.3,0.3,2.3,0.8,3.1c0.5,0.8,1.6,1.2,3.2,1.2c5.1,0,9.6-1.9,13.6-5.6s6-8,6-13c0-2.2-1.3-3.8-3.8-5s-5-1.8-7.5-1.8
		c-10.3,0-22,3.5-35.1,10.6c-5.9,3.1-10.9,7.1-14.9,12c-4.1,4.9-6.1,9.5-6.1,13.9s0.4,7.5,1.2,9.5s2.6,3.6,5.5,4.9
		c-9.2,3.4-15.4,7.9-18.6,13.3c-0.8,0.8-1.6,1.6-2.5,2.5c-2.8,2.9-6.2,5.6-10,7.9c-3.8,2.4-7.4,3.6-10.8,3.6c-3.4,0-6.2-1-8.4-3
		c-2.3-2-3.4-4.2-3.4-6.6c0-2.5,0.3-4.9,0.8-7.3c0.6-2.4,0.9-4.1,0.9-5c11.9-13.2,24.4-28.1,37.3-44.6c8.2-10.4,15.5-20.3,22-29.6
		c6.5-9.3,12-18.4,16.7-27.3c4.6-8.9,6.9-15.4,6.9-19.6s-1.4-7.3-4.1-9.4c-2.7-2.1-5.9-3.2-9.4-3.2c-11.6,0-28.4,15.6-50.4,46.7
		c-9.8,13.8-18.5,30.5-26.3,50.1c-5.2,13.1-8.6,25-10.4,35.8c-0.8,0-1.5,0.2-2,0.7c-0.5,0.4-2,2-4.4,4.5c-2.4,2.6-4.8,5-7.2,7.4
		s-5.2,4.6-8.3,6.7c-3.2,2.1-5.9,3.1-8.1,3.1c-2.2,0-3.4-1.5-3.4-4.6v-0.9c0-3.9,4.8-15.4,14.4-34.4c9.6-19,22.9-42.2,39.8-69.7
		c2.9-4.8,7-11.3,12.2-19.7c5.2-8.4,8.5-13.8,10-16.3s2.2-4.2,2.2-5.1s-0.4-1.8-1.2-2.7c-0.8-0.9-1.9-1.3-3.4-1.3
		c-6.6,0-11.5,2.1-14.6,6.1c-5.9,6.8-18,25.6-36.2,56.3c-5.8,10.3-9.8,17.1-12,20.6c-3.2-2.9-6-4.4-8.4-4.4
		c-7.5,0-15.8,2.4-24.7,7.1s-17.1,10.6-24.4,17.7c-7.3,7-13.5,15-18.4,23.7c-2.9,5.2-4.9,9.9-6.1,14.2c-1.2,1.3-2.4,2.5-3.6,3.7
		c-2.4,2.4-5.2,4.6-8.3,6.7c-3.2,2.1-5.9,3.1-8.1,3.1c-2.2,0-3.4-1.5-3.4-4.6v-0.9c0-3.9,4.8-15.4,14.4-34.4
		c9.6-19,22.9-42.2,39.8-69.7c2.9-4.8,7-11.3,12.2-19.7c5.2-8.4,8.5-13.8,10-16.3s2.2-4.2,2.2-5.1s-0.4-1.8-1.2-2.7
		c-0.8-0.9-1.9-1.3-3.4-1.3c-6.6,0-11.5,2.1-14.6,6.1c-5.9,6.8-18,25.6-36.2,56.3c-5.8,10.3-9.8,17.1-12,20.6
		c-3.2-2.9-6-4.4-8.4-4.4c-7.5,0-15.8,2.4-24.7,7.1s-17.1,10.6-24.4,17.7c-7.3,7-13.5,15-18.4,23.7c-2.9,5.1-4.9,9.8-6.1,14.1
		c-0.7,0.7-1.4,1.5-2.2,2.4c-2.7,2.8-5.9,5.4-9.6,7.8c-3.7,2.3-7.2,3.5-10.7,3.5c-3.4,0-5.1-1.3-5.1-3.8c0-2,0.7-4.5,2.2-7.5
		c0.7-1.4,1.4-2.6,2-3.6s1.3-2.3,2.3-3.8s1.6-2.5,1.8-3c17.7-30.5,26.6-46.7,26.6-48.4c0-1.7-0.9-3.6-2.8-5.7s-4-3.1-6.3-3.1
		s-5.7,1.6-10.2,4.9c-4.4,3.2-8.2,6.5-11.3,9.8c-3.1,3.3-4.6,5.4-4.6,6.1c0,0.8,0.8,2,2.3,3.6s2.3,2.7,2.3,3.3
		c0,0.6-2.1,4.2-6.1,10.8c-4.1,6.6-8.2,13.9-12.3,21.7c-4.1,7.8-6.1,13.8-6.1,17.9c0,2.5,0.8,5,2.4,7.5c-3.7-1-8.6-4.7-14.6-10.8
		c-7.2-7.4-15.1-16.7-23.8-27.8c-8.7-11.1-14.4-18-17-20.7c15.7-3.4,30.5-8.8,44.3-16.1c7.4-3.9,13.9-8.2,19.6-12.8
		c5.7-4.6,10.3-9.8,13.9-15.7c3.6-5.9,5.4-11.6,5.4-17.2c0-5.5-2.1-11-6.4-16.4c-2.5-3.2-5.8-6.1-9.7-8.7s-9.3-4.7-16.3-6.5
		c-6.9-1.7-15.8-2.6-26.6-2.6c-10.8,0-23,1.8-36.5,5.4c-13.6,3.6-24.9,7.7-33.9,12.2c-9.1,4.6-16.1,9.4-21.2,14.5s-7.6,9.7-7.6,13.9
		c0,4.2,1.2,7.4,3.6,9.6s4.5,3.3,6.5,3.3c8.2,0,15.4-3.1,21.7-9.4c0.4-0.4,0.6-0.8,0.6-1.2c0-1.3-0.6-1.9-1.7-1.9
		c-0.2,0-0.9,0.4-2.1,1.2c-1.2,0.8-2.6,1.2-4.1,1.2s-2.3-0.3-2.3-0.8c0-1,1.4-2.7,4.1-5.1c2.8-2.4,7.2-5.4,13.4-8.8
		c6.2-3.5,16-7.1,29.5-10.9s24.6-5.7,33.4-5.7s16.7,1,23.7,3.1c3.5,1,6.4,2.5,8.7,4.3c2.3,1.8,3.5,3.9,3.5,6.1c0,4.2-2.7,9.1-8,14.7
		s-11.7,10.8-19.2,15.6c-7.5,4.8-15.5,8.9-24.1,12.3s-15.9,5.3-22,5.6c2.5-3.7,6.6-9.5,12.3-17.6c5.7-8.1,10.3-14.7,13.8-19.7
		c3.5-5.1,5.6-8.3,6.4-9.8s1.2-3,1.2-4.5c0-1.6-1.6-3.5-4.7-5.8c-0.2-0.1-0.6-0.5-1.1-1.1s-1.1-0.8-1.8-0.8l-1.9,0.3l-2-0.3
		c-0.3,0-0.9,0.3-1.8,1c-1.2,0.3-3,1.6-5.5,4c-2.5,2.3-15.7,21-39.7,55.9s-37.2,55.1-39.7,60.5c-2.5,5.4-3.7,9.6-3.7,12.5
		c0,3.9,2.3,5.8,6.9,5.8l3.4-0.1l3.9,0.1c3.6,0,6.3-1.7,7.9-5.1c1.6-3.4,4.5-8.6,8.5-15.5c1.5-2.6,3.6-6.1,6.3-10.3
		c2.7-4.3,4.7-7.5,6.1-9.8c1.4-2.2,3.6-5.7,6.7-10.5c3.1-4.7,5-7.7,5.7-8.9c2,2.6,5.7,7.6,11.1,14.9c5.4,7.3,10.1,13.7,14.3,19.1
		c4.2,5.4,8.9,11.2,14.1,17.3s10,10.8,14.4,14.2s8.3,5,11.8,5s6.2-0.8,8.2-2.3c2-1.6,4.4-3.9,7.1-6.9c0.3-0.3,0.6-0.6,0.8-0.9
		l0.1,0.1c4.2,3.9,9.3,5.9,15.2,5.9c5.9,0,12.8-2.3,20.8-6.9c2.1-1.2,4.1-2.6,5.9-4c0.4,1.1,1,2.2,1.6,3.1c2.3,3.4,5.8,5,10.6,5
		c8.6,0,18.7-5.1,30.3-15.2c6.3-5.5,12.4-12.2,18.4-20c-4.5,9.5-6.7,17.2-6.7,23.1c0,9.5,5.6,14.2,16.8,14.2c6.6,0,13.5-3,20.8-9
		c0.8-0.6,1.5-1.2,2.2-1.8c0.5,1.4,1.1,2.6,1.8,3.7c2.3,3.4,5.8,5,10.6,5c8.6,0,18.7-5.1,30.3-15.2c6.3-5.5,12.4-12.2,18.4-20
		c-4.5,9.5-6.7,17.2-6.7,23.1c0,9.5,5.6,14.2,16.8,14.2c6.6,0,13.5-3,20.8-9c4.6-3.8,8.2-7.2,10.8-10.3c0.6,5.4,2.3,9.9,5.2,13.3
		c3.6,4.3,9,6.4,16,6.4s14.4-1.9,22.2-5.6c3-1.5,5.9-3.2,8.7-5.2c2.1,3.1,5.3,5.7,9.7,7.7c4.5,2.1,10.6,3.1,18.2,3.1
		c13.2,0,27.1-5.6,41.7-16.7c0.5,3.7,1.5,6.7,3.1,9.1c2.3,3.4,5.8,5,10.6,5c8.6,0,18.7-5.1,30.3-15.2c6.3-5.5,12.4-12.2,18.4-20
		c-4.5,9.5-6.7,17.2-6.7,23.1c0,9.5,5.6,14.2,16.8,14.2c6.6,0,13.5-3,20.8-9s12.1-11.1,14.2-15.3c0.4-0.9,0.7-2.8,0.7-5.6
		c0-2.9-0.2-5.1-0.6-6.7c-0.4-1.6-1.2-2.4-2.5-2.4c-0.8,0-1.5,0.2-2,0.7c-0.5,0.4-2,2-4.4,4.5c-2.4,2.6-4.8,5-7.2,7.4
		s-5.2,4.6-8.3,6.7c-3.2,2.1-5.9,3.1-8.1,3.1c-2.2,0-3.4-1.5-3.4-4.6v-0.9c0-3.9,4.8-15.4,14.4-34.4c9.6-19,22.9-42.2,39.8-69.7
		c2.9-4.8,7-11.3,12.2-19.7c5.2-8.4,8.5-13.8,10-16.3s2.2-4.2,2.2-5.1C911,37.4,910.6,36.5,909.8,35.6z M676.3,108.9
		c5-8.9,13-20.7,24.1-35.7c11.1-14.9,18-22.4,20.6-22.4c0.7,0,1.1,0.6,1.1,1.7c0,5.2-7.8,18.9-23.3,41s-27.7,38.4-36.5,48.8
		C666.6,128.9,671.3,117.8,676.3,108.9z M493.8,156.5c-17.7,20-28.7,30-33.2,30c-1,0-1.6-1.2-1.6-3.7s2.3-7.8,6.9-16.1
		s11.5-16.3,20.8-23.9c9.2-7.6,19.2-12.6,30-15C510.2,137.1,502.6,146.7,493.8,156.5z M588,156.5c-17.7,20-28.7,30-33.2,30
		c-1,0-1.6-1.2-1.6-3.7s2.3-7.8,6.9-16.1c4.6-8.3,11.5-16.3,20.8-23.9c9.2-7.6,19.2-12.6,30-15C604.5,137.1,596.8,146.7,588,156.5z
		 M813.9,156.5c-17.7,20-28.7,30-33.2,30c-1,0-1.6-1.2-1.6-3.7s2.3-7.8,6.9-16.1c4.6-8.3,11.5-16.3,20.8-23.9
		c9.2-7.6,19.2-12.6,30-15C830.3,137.1,822.7,146.7,813.9,156.5z"/>
</g>
</svg>
