<?xml version="1.0" encoding="utf-8"?>
<!-- Generator: Adobe Illustrator 21.1.0, SVG Export Plug-In . SVG Version: 6.00 Build 0)  -->
<svg version="1.1" id="Layer_1" xmlns="http://www.w3.org/2000/svg" xmlns:xlink="http://www.w3.org/1999/xlink" x="0px" y="0px"
	 viewBox="0 0 1000 1000" style="enable-background:new 0 0 1000 1000;" xml:space="preserve">
<style type="text/css">
	.st0{fill:#FF5C5C;}
	.st1{fill:#DE2F7E;}
	.st2{fill:#9F2A9C;}
	.st3{fill:#2838A8;}
</style>
<path class="st0" d="M500.3,500.6V11c38.8,0,77.1,4.6,114.9,13.7L500.3,500.6z"/>
<path class="st1" d="M500.3,500.6l73-484.1c97.4,14.7,182.5,55,255.5,121.1L500.3,500.6z"/>
<path class="st2" d="M500.3,500.6l295.6-390.3C867.3,164.4,920,233,953.8,316.1L500.3,500.6z"/>
<path class="st3" d="M500.3,500.6l435.7-223.4c12.1,23.6,22.2,48,30.3,73.2c8.1,25.2,14.2,51,18.1,77.2c4,26.2,5.8,52.6,5.4,79.1
	c-0.3,26.5-2.8,52.8-7.4,78.9c-4.6,26.1-11.3,51.7-20,76.7c-8.8,25-19.5,49.2-32.1,72.4c-12.7,23.3-27.1,45.4-43.4,66.3
	c-16.3,20.9-34.1,40.4-53.5,58.4c-19.4,18-40.2,34.4-62.3,49c-22.1,14.7-45.2,27.4-69.4,38.3c-24.2,10.9-49,19.8-74.6,26.6
	c-25.6,6.9-51.6,11.6-78,14.3c-26.4,2.6-52.8,3.1-79.2,1.5c-26.5-1.7-52.6-5.4-78.4-11.3c-25.8-5.9-51-13.8-75.6-23.8
	c-24.6-10-48.1-21.9-70.8-35.7c-22.6-13.8-44-29.4-64.1-46.7c-20.1-17.3-38.7-36.1-55.7-56.4c-17-20.3-32.3-41.9-45.9-64.6
	c-13.5-22.8-25.2-46.5-34.8-71.2c-9.7-24.7-17.3-50-22.9-75.9c-5.6-25.9-9-52.1-10.3-78.6c-1.3-26.5-0.5-52.9,2.5-79.2
	c3-26.3,8-52.3,15.2-77.8c7.2-25.5,16.4-50.3,27.6-74.3c11.2-24,24.3-47,39.2-68.9c14.9-21.9,31.5-42.5,49.8-61.7
	c18.3-19.2,38-36.8,59.1-52.8c21.1-16,43.4-30.2,66.8-42.6s47.7-22.8,72.8-31.2c25.1-8.4,50.8-14.8,76.9-19.1
	c26.2-4.3,52.5-6.4,79-6.4V500.6z"/>
</svg>
