<?xml version="1.0" encoding="utf-8"?>
<!-- Generator: Adobe Illustrator 21.1.0, SVG Export Plug-In . SVG Version: 6.00 Build 0)  -->
<svg version="1.1" xmlns="http://www.w3.org/2000/svg" xmlns:xlink="http://www.w3.org/1999/xlink" x="0px" y="0px"
	 viewBox="0 0 291 302" style="enable-background:new 0 0 291 302;" xml:space="preserve">
<style type="text/css">
	.st0{fill:url(#SVGID_1_);}
</style>
<g id="Layer_1">
	<radialGradient id="SVGID_1_" cx="143.7742" cy="152.1636" r="138.7049" gradientUnits="userSpaceOnUse">
		<stop  offset="0" style="stop-color:#13B5EA"/>
		<stop  offset="0.4274" style="stop-color:#0084C6"/>
		<stop  offset="0.8173" style="stop-color:#0061AC"/>
		<stop  offset="1" style="stop-color:#0054A4"/>
	</radialGradient>
	<path class="st0" d="M176.4,11.4L144,77.1l-30.7-65.7H7.2c0,0,73.1,150.4,73.1,150.3c0-39.7,32.5-71.8,72.6-71.8
		c13.9,0,26.8,3.9,37.9,10.5l-6.7,11c-9.1-5.6-19.8-8.8-31.2-8.8c-32.8,0-59.3,26.5-59.3,59.1c0,32.6,26.6,59.1,59.3,59.1
		c10.6,0,20.6-2.8,29.2-7.7l98.3-201.7H176.4z M173.1,231.1L143,292.9l-36.3-74.8c12.5,10,28.4,16,45.7,16
		C159.5,234.1,166.5,233.1,173.1,231.1z M125.8,194.6l2.8-8.9c0,0,11.2,5.7,21.7,5.2c10.5-0.6,24.1-4.1,24.1-13.5
		c0-9.4-25.3-11.1-28.1-11.1v-8.8c2.8,0,28.1-1.7,28.1-11.1c0-9.4-13.6-12.9-24.1-13.5c-10.5-0.6-21.7,5.2-21.7,5.2l-2.8-8.8
		c16-7.7,30-8.4,44.9-2.3c14.9,6.1,15.4,16.2,13.2,24.5c-2.2,8.1-12.3,10.3-12.7,10.4c0.4,0.1,10.5,2.3,12.7,10.4
		c2.2,8.3,1.8,18.5-13.2,24.5C155.8,203,141.8,202.3,125.8,194.6z"/>
</g>
<g id="Layer_2">
</g>
</svg>
